<svg aria-roledescription="flowchart-v2" role="graphics-document document" viewBox="-8 -8 2418.40234375 1473.359375" style="max-width: 2418.40234375px;" xmlns:xlink="http://www.w3.org/1999/xlink" xmlns="http://www.w3.org/2000/svg" width="100%" id="mermaid-1763036416075"><style>#mermaid-1763036416075{font-family:"trebuchet ms",verdana,arial,sans-serif;font-size:16px;fill:#333;}#mermaid-1763036416075 .error-icon{fill:#552222;}#mermaid-1763036416075 .error-text{fill:#552222;stroke:#552222;}#mermaid-1763036416075 .edge-thickness-normal{stroke-width:2px;}#mermaid-1763036416075 .edge-thickness-thick{stroke-width:3.5px;}#mermaid-1763036416075 .edge-pattern-solid{stroke-dasharray:0;}#mermaid-1763036416075 .edge-pattern-dashed{stroke-dasharray:3;}#mermaid-1763036416075 .edge-pattern-dotted{stroke-dasharray:2;}#mermaid-1763036416075 .marker{fill:#333333;stroke:#333333;}#mermaid-1763036416075 .marker.cross{stroke:#333333;}#mermaid-1763036416075 svg{font-family:"trebuchet ms",verdana,arial,sans-serif;font-size:16px;}#mermaid-1763036416075 .label{font-family:"trebuchet ms",verdana,arial,sans-serif;color:#333;}#mermaid-1763036416075 .cluster-label text{fill:#333;}#mermaid-1763036416075 .cluster-label span,#mermaid-1763036416075 p{color:#333;}#mermaid-1763036416075 .label text,#mermaid-1763036416075 span,#mermaid-1763036416075 p{fill:#333;color:#333;}#mermaid-1763036416075 .node rect,#mermaid-1763036416075 .node circle,#mermaid-1763036416075 .node ellipse,#mermaid-1763036416075 .node polygon,#mermaid-1763036416075 .node path{fill:#ECECFF;stroke:#9370DB;stroke-width:1px;}#mermaid-1763036416075 .flowchart-label text{text-anchor:middle;}#mermaid-1763036416075 .node .katex path{fill:#000;stroke:#000;stroke-width:1px;}#mermaid-1763036416075 .node .label{text-align:center;}#mermaid-1763036416075 .node.clickable{cursor:pointer;}#mermaid-1763036416075 .arrowheadPath{fill:#333333;}#mermaid-1763036416075 .edgePath .path{stroke:#333333;stroke-width:2.0px;}#mermaid-1763036416075 .flowchart-link{stroke:#333333;fill:none;}#mermaid-1763036416075 .edgeLabel{background-color:#e8e8e8;text-align:center;}#mermaid-1763036416075 .edgeLabel rect{opacity:0.5;background-color:#e8e8e8;fill:#e8e8e8;}#mermaid-1763036416075 .labelBkg{background-color:rgba(232, 232, 232, 0.5);}#mermaid-1763036416075 .cluster rect{fill:#ffffde;stroke:#aaaa33;stroke-width:1px;}#mermaid-1763036416075 .cluster text{fill:#333;}#mermaid-1763036416075 .cluster span,#mermaid-1763036416075 p{color:#333;}#mermaid-1763036416075 div.mermaidTooltip{position:absolute;text-align:center;max-width:200px;padding:2px;font-family:"trebuchet ms",verdana,arial,sans-serif;font-size:12px;background:hsl(80, 100%, 96.2745098039%);border:1px solid #aaaa33;border-radius:2px;pointer-events:none;z-index:100;}#mermaid-1763036416075 .flowchartTitleText{text-anchor:middle;font-size:18px;fill:#333;}#mermaid-1763036416075 :root{--mermaid-font-family:"trebuchet ms",verdana,arial,sans-serif;}</style><g><marker orient="auto" markerHeight="12" markerWidth="12" markerUnits="userSpaceOnUse" refY="5" refX="6" viewBox="0 0 10 10" class="marker flowchart" id="mermaid-1763036416075_flowchart-pointEnd"><path style="stroke-width: 1; stroke-dasharray: 1, 0;" class="arrowMarkerPath" d="M 0 0 L 10 5 L 0 10 z"></path></marker><marker orient="auto" markerHeight="12" markerWidth="12" markerUnits="userSpaceOnUse" refY="5" refX="4.5" viewBox="0 0 10 10" class="marker flowchart" id="mermaid-1763036416075_flowchart-pointStart"><path style="stroke-width: 1; stroke-dasharray: 1, 0;" class="arrowMarkerPath" d="M 0 5 L 10 10 L 10 0 z"></path></marker><marker orient="auto" markerHeight="11" markerWidth="11" markerUnits="userSpaceOnUse" refY="5" refX="11" viewBox="0 0 10 10" class="marker flowchart" id="mermaid-1763036416075_flowchart-circleEnd"><circle style="stroke-width: 1; stroke-dasharray: 1, 0;" class="arrowMarkerPath" r="5" cy="5" cx="5"></circle></marker><marker orient="auto" markerHeight="11" markerWidth="11" markerUnits="userSpaceOnUse" refY="5" refX="-1" viewBox="0 0 10 10" class="marker flowchart" id="mermaid-1763036416075_flowchart-circleStart"><circle style="stroke-width: 1; stroke-dasharray: 1, 0;" class="arrowMarkerPath" r="5" cy="5" cx="5"></circle></marker><marker orient="auto" markerHeight="11" markerWidth="11" markerUnits="userSpaceOnUse" refY="5.2" refX="12" viewBox="0 0 11 11" class="marker cross flowchart" id="mermaid-1763036416075_flowchart-crossEnd"><path style="stroke-width: 2; stroke-dasharray: 1, 0;" class="arrowMarkerPath" d="M 1,1 l 9,9 M 10,1 l -9,9"></path></marker><marker orient="auto" markerHeight="11" markerWidth="11" markerUnits="userSpaceOnUse" refY="5.2" refX="-1" viewBox="0 0 11 11" class="marker cross flowchart" id="mermaid-1763036416075_flowchart-crossStart"><path style="stroke-width: 2; stroke-dasharray: 1, 0;" class="arrowMarkerPath" d="M 1,1 l 9,9 M 10,1 l -9,9"></path></marker><g class="root"><g class="clusters"><g id="API" class="cluster default flowchart-label"><rect height="1336.765625" width="887.765625" y="0" x="0" ry="0" rx="0" style=""></rect><g transform="translate(387.6875, 0)" class="cluster-label"><foreignObject height="25.59375" width="112.390625"><div style="display: inline-block; white-space: nowrap;" xmlns="http://www.w3.org/1999/xhtml"><span class="nodeLabel">Integration APIs</span></div></foreignObject></g></g><g id="SINTECE" class="cluster default flowchart-label"><rect height="1336.765625" width="453.921875" y="120.59375" x="1948.48046875" ry="0" rx="0" style=""></rect><g transform="translate(2082.64453125, 120.59375)" class="cluster-label"><foreignObject height="25.59375" width="185.59375"><div style="display: inline-block; white-space: nowrap;" xmlns="http://www.w3.org/1999/xhtml"><span class="nodeLabel">SINTECE System (ARCCLA)</span></div></foreignObject></g></g><g id="JUL" class="cluster default flowchart-label"><rect height="1095.578125" width="1020.71484375" y="120.59375" x="907.765625" ry="0" rx="0" style=""></rect><g transform="translate(1312.982421875, 120.59375)" class="cluster-label"><foreignObject height="25.59375" width="210.28125"><div style="display: inline-block; white-space: nowrap;" xmlns="http://www.w3.org/1999/xhtml"><span class="nodeLabel">JUL System (Abu Dhabi Ports)</span></div></foreignObject></g></g></g><g class="edgePaths"><path marker-end="url(#mermaid-1763036416075_flowchart-pointEnd)" style="fill:none;" class="edge-thickness-normal edge-pattern-solid flowchart-link LS-A1 LE-A2" id="L-A1-A2-0" d="M1108.391,191.188L1108.391,195.354C1108.391,199.521,1108.391,207.854,1108.391,230.428C1108.391,253.002,1108.391,289.816,1108.391,308.223L1108.391,326.63"></path><path marker-end="url(#mermaid-1763036416075_flowchart-pointEnd)" style="fill:none;" class="edge-thickness-normal edge-pattern-solid flowchart-link LS-A2 LE-A3" id="L-A2-A3-0" d="M1108.391,377.523L1108.391,398.947C1108.391,420.37,1108.391,463.216,1108.391,490.055C1108.391,516.895,1108.391,527.727,1108.391,533.143L1108.391,538.559"></path><path marker-end="url(#mermaid-1763036416075_flowchart-pointEnd)" style="fill:none;" class="edge-thickness-normal edge-pattern-solid flowchart-link LS-A3 LE-A4" id="L-A3-A4-0" d="M1108.391,589.453L1108.391,593.62C1108.391,597.786,1108.391,606.12,1108.391,613.57C1108.391,621.02,1108.391,627.586,1108.391,630.87L1108.391,634.153"></path><path marker-end="url(#mermaid-1763036416075_flowchart-pointEnd)" style="fill:none;" class="edge-thickness-normal edge-pattern-solid flowchart-link LS-A4 LE-A5" id="L-A4-A5-0" d="M1108.391,685.047L1108.391,689.214C1108.391,693.38,1108.391,701.714,1108.391,709.164C1108.391,716.614,1108.391,723.18,1108.391,726.464L1108.391,729.747"></path><path marker-end="url(#mermaid-1763036416075_flowchart-pointEnd)" style="fill:none;" class="edge-thickness-normal edge-pattern-solid flowchart-link LS-A5 LE-A6" id="L-A5-A6-0" d="M1108.391,780.641L1108.391,784.807C1108.391,788.974,1108.391,797.307,1108.457,804.841C1108.523,812.374,1108.655,819.108,1108.721,822.475L1108.787,825.842"></path><path marker-end="url(#mermaid-1763036416075_flowchart-pointEnd)" style="fill:none;" class="edge-thickness-normal edge-pattern-solid flowchart-link LS-A6 LE-A7" id="L-A6-A7-0" d="M1078.189,1039.782L1074.166,1051.116C1070.143,1062.449,1062.097,1085.115,1058.074,1101.864C1054.051,1118.614,1054.051,1129.446,1054.051,1134.862L1054.051,1140.278"></path><path marker-end="url(#mermaid-1763036416075_flowchart-pointEnd)" style="fill:none;" class="edge-thickness-normal edge-pattern-solid flowchart-link LS-A6 LE-A8" id="L-A6-A8-0" d="M1163.826,1015.549L1176.858,1030.921C1189.891,1046.293,1215.955,1077.037,1228.987,1097.825C1242.02,1118.614,1242.02,1129.446,1242.02,1134.862L1242.02,1140.278"></path><path marker-end="url(#mermaid-1763036416075_flowchart-pointEnd)" style="fill:none;" class="edge-thickness-normal edge-pattern-solid flowchart-link LS-A8 LE-C1" id="L-A8-C1-0" d="M1160.996,1161.596L1053.798,1152.627C946.599,1143.658,732.202,1125.719,625.003,1090.506C517.805,1055.292,517.805,1002.802,517.805,952.445C517.805,902.089,517.805,853.865,517.805,821.786C517.805,789.708,517.805,773.776,517.805,757.844C517.805,741.911,517.805,725.979,517.805,710.047C517.805,694.115,517.805,678.182,517.805,662.25C517.805,646.318,517.805,630.385,517.805,614.453C517.805,598.521,517.805,582.589,517.805,564.523C517.805,546.458,517.805,526.26,517.805,490.939C517.805,455.617,517.805,405.172,517.805,356.859C517.805,308.547,517.805,262.367,517.805,231.311C517.805,200.255,517.805,184.323,517.805,168.391C517.805,152.458,517.805,136.526,517.805,124.393C517.805,112.26,517.805,103.927,518.496,96.458C519.186,88.99,520.568,82.386,521.259,79.083L521.95,75.781"></path><path marker-end="url(#mermaid-1763036416075_flowchart-pointEnd)" style="fill:none;" class="edge-thickness-normal edge-pattern-solid flowchart-link LS-C1 LE-B1" id="L-C1-B1-0" d="M547.531,70.594L551.137,74.76C554.742,78.927,561.953,87.26,565.559,95.594C569.164,103.927,569.164,112.26,815.509,123.976C1061.854,135.692,1554.544,150.789,1800.889,158.338L2047.234,165.887"></path><path marker-end="url(#mermaid-1763036416075_flowchart-pointEnd)" style="fill:none;" class="edge-thickness-normal edge-pattern-solid flowchart-link LS-B1 LE-B2" id="L-B1-B2-0" d="M2128.93,191.188L2128.93,195.354C2128.93,199.521,2128.93,207.854,2128.996,215.388C2129.062,222.921,2129.194,229.655,2129.26,233.022L2129.326,236.389"></path><path marker-end="url(#mermaid-1763036416075_flowchart-pointEnd)" style="fill:none;" class="edge-thickness-normal edge-pattern-solid flowchart-link LS-B2 LE-B3" id="L-B2-B3-0" d="M2099.943,439.279L2095.926,450.41C2091.909,461.54,2083.874,483.801,2079.857,500.348C2075.84,516.895,2075.84,527.727,2075.84,533.143L2075.84,538.559"></path><path marker-end="url(#mermaid-1763036416075_flowchart-pointEnd)" style="fill:none;" class="edge-thickness-normal edge-pattern-solid flowchart-link LS-B3 LE-A9" id="L-B3-A9-0" d="M2075.84,589.453L2075.84,593.62C2075.84,597.786,2075.84,606.12,2021.131,616.608C1966.423,627.096,1857.006,639.738,1802.298,646.06L1747.589,652.381"></path><path marker-end="url(#mermaid-1763036416075_flowchart-pointEnd)" style="fill:none;" class="edge-thickness-normal edge-pattern-solid flowchart-link LS-A9 LE-B4" id="L-A9-B4-0" d="M1662.176,685.047L1662.176,689.214C1662.176,693.38,1662.176,701.714,1753.769,712.903C1845.362,724.093,2028.549,738.14,2120.142,745.163L2211.735,752.186"></path><path marker-end="url(#mermaid-1763036416075_flowchart-pointEnd)" style="fill:none;" class="edge-thickness-normal edge-pattern-solid flowchart-link LS-B4 LE-A10" id="L-B4-A10-0" d="M2285.52,780.641L2285.52,784.807C2285.52,788.974,2285.52,797.307,2191.398,822.324C2097.276,847.341,1909.032,889.042,1814.91,909.893L1720.788,930.743"></path><path marker-end="url(#mermaid-1763036416075_flowchart-pointEnd)" style="fill:none;" class="edge-thickness-normal edge-pattern-solid flowchart-link LS-B2 LE-C5" id="L-B2-C5-0" d="M2158.916,439.279L2162.767,450.41C2166.617,461.54,2174.318,483.801,2178.169,505.031C2182.02,526.26,2182.02,546.458,2182.02,564.523C2182.02,582.589,2182.02,598.521,2182.02,614.453C2182.02,630.385,2182.02,646.318,2182.02,662.25C2182.02,678.182,2182.02,694.115,2182.02,710.047C2182.02,725.979,2182.02,741.911,2182.02,757.844C2182.02,773.776,2182.02,789.708,1899.698,820.499C1617.376,851.289,1052.731,896.938,770.409,919.762L488.087,942.587"></path><path marker-end="url(#mermaid-1763036416075_flowchart-pointEnd)" style="fill:none;" class="edge-thickness-normal edge-pattern-solid flowchart-link LS-C5 LE-A8" id="L-C5-A8-0" d="M392.523,973.109L392.523,995.555C392.523,1018,392.523,1062.891,519.721,1094.409C646.919,1125.927,901.314,1144.073,1028.512,1153.146L1155.71,1162.219"></path><path marker-end="url(#mermaid-1763036416075_flowchart-pointEnd)" style="fill:none;" class="edge-thickness-normal edge-pattern-solid flowchart-link LS-A10 LE-A11" id="L-A10-A11-0" d="M1611.804,973.109L1591.476,995.555C1571.149,1018,1530.494,1062.891,1510.167,1090.752C1489.84,1118.614,1489.84,1129.446,1489.84,1134.862L1489.84,1140.278"></path><path marker-end="url(#mermaid-1763036416075_flowchart-pointEnd)" style="fill:none;" class="edge-thickness-normal edge-pattern-solid flowchart-link LS-A11 LE-C3" id="L-A11-C3-0" d="M1584.906,1191.172L1602.282,1195.339C1619.658,1199.505,1654.409,1207.839,1459.28,1216.172C1264.151,1224.505,839.142,1232.839,626.637,1240.289C414.133,1247.739,414.133,1254.305,414.133,1257.589L414.133,1260.872"></path><path marker-end="url(#mermaid-1763036416075_flowchart-pointEnd)" style="fill:none;" class="edge-thickness-normal edge-pattern-solid flowchart-link LS-C3 LE-B5" id="L-C3-B5-0" d="M414.133,1311.766L414.133,1315.932C414.133,1320.099,414.133,1328.432,690.443,1336.766C966.754,1345.099,1519.375,1353.432,1795.686,1360.882C2071.996,1368.332,2071.996,1374.899,2071.996,1378.182L2071.996,1381.466"></path><path marker-end="url(#mermaid-1763036416075_flowchart-pointEnd)" style="fill:none;" class="edge-thickness-normal edge-pattern-solid flowchart-link LS-A10 LE-A12" id="L-A10-A12-0" d="M1653.095,973.109L1673.422,995.555C1693.749,1018,1734.404,1062.891,1754.731,1090.752C1775.059,1118.614,1775.059,1129.446,1775.059,1134.862L1775.059,1140.278"></path><path marker-end="url(#mermaid-1763036416075_flowchart-pointEnd)" style="fill:none;" class="edge-thickness-normal edge-pattern-solid flowchart-link LS-A12 LE-C4" id="L-A12-C4-0" d="M1806.877,1191.172L1812.692,1195.339C1818.508,1199.505,1830.139,1207.839,1649.456,1216.172C1468.773,1224.505,1095.777,1232.839,909.279,1240.289C722.781,1247.739,722.781,1254.305,722.781,1257.589L722.781,1260.872"></path><path marker-end="url(#mermaid-1763036416075_flowchart-pointEnd)" style="fill:none;" class="edge-thickness-normal edge-pattern-solid flowchart-link LS-C4 LE-B6" id="L-C4-B6-0" d="M722.781,1311.766L722.781,1315.932C722.781,1320.099,722.781,1328.432,983.161,1336.766C1243.54,1345.099,1764.299,1353.432,2024.679,1360.882C2285.059,1368.332,2285.059,1374.899,2285.059,1378.182L2285.059,1381.466"></path><path marker-end="url(#mermaid-1763036416075_flowchart-pointEnd)" style="fill:none;stroke-width:2px;stroke-dasharray:3;" class="edge-thickness-normal edge-pattern-dotted flowchart-link LS-A8 LE-C2" id="L-A8-C2-0" d="M1242.02,1191.172L1242.02,1195.339C1242.02,1199.505,1242.02,1207.839,1046.286,1216.172C850.552,1224.505,459.085,1232.839,268.524,1240.662C77.964,1248.485,88.31,1255.799,93.483,1259.456L98.656,1263.113"></path><path marker-end="url(#mermaid-1763036416075_flowchart-pointEnd)" style="fill:none;stroke-width:2px;stroke-dasharray:3;" class="edge-thickness-normal edge-pattern-dotted flowchart-link LS-A11 LE-C2" id="L-A11-C2-0" d="M1435.51,1191.172L1425.58,1195.339C1415.65,1199.505,1395.79,1207.839,1179.077,1216.172C962.365,1224.505,548.799,1232.839,342.017,1240.289C135.234,1247.739,135.234,1254.305,135.234,1257.589L135.234,1260.872"></path><path marker-end="url(#mermaid-1763036416075_flowchart-pointEnd)" style="fill:none;stroke-width:2px;stroke-dasharray:3;" class="edge-thickness-normal edge-pattern-dotted flowchart-link LS-A12 LE-C2" id="L-A12-C2-0" d="M1657.48,1191.172L1635.99,1195.339C1614.5,1199.505,1571.519,1207.839,1341.053,1216.172C1110.587,1224.505,692.635,1232.839,472.339,1240.885C252.042,1248.932,229.4,1256.693,218.08,1260.573L206.759,1264.453"></path></g><g class="edgeLabels"><g class="edgeLabel"><g transform="translate(0, 0)" class="label"><foreignObject height="0" width="0"><div style="display: inline-block; white-space: nowrap;" xmlns="http://www.w3.org/1999/xhtml"><span class="edgeLabel"></span></div></foreignObject></g></g><g class="edgeLabel"><g transform="translate(0, 0)" class="label"><foreignObject height="0" width="0"><div style="display: inline-block; white-space: nowrap;" xmlns="http://www.w3.org/1999/xhtml"><span class="edgeLabel"></span></div></foreignObject></g></g><g class="edgeLabel"><g transform="translate(0, 0)" class="label"><foreignObject height="0" width="0"><div style="display: inline-block; white-space: nowrap;" xmlns="http://www.w3.org/1999/xhtml"><span class="edgeLabel"></span></div></foreignObject></g></g><g class="edgeLabel"><g transform="translate(0, 0)" class="label"><foreignObject height="0" width="0"><div style="display: inline-block; white-space: nowrap;" xmlns="http://www.w3.org/1999/xhtml"><span class="edgeLabel"></span></div></foreignObject></g></g><g class="edgeLabel"><g transform="translate(0, 0)" class="label"><foreignObject height="0" width="0"><div style="display: inline-block; white-space: nowrap;" xmlns="http://www.w3.org/1999/xhtml"><span class="edgeLabel"></span></div></foreignObject></g></g><g transform="translate(1054.05078125, 1107.78125)" class="edgeLabel"><g transform="translate(-18.3515625, -12.796875)" class="label"><foreignObject height="25.59375" width="36.703125"><div style="display: inline-block; white-space: nowrap;" xmlns="http://www.w3.org/1999/xhtml"><span class="edgeLabel">Draft</span></div></foreignObject></g></g><g transform="translate(1242.01953125, 1107.78125)" class="edgeLabel"><g transform="translate(-24.7734375, -12.796875)" class="label"><foreignObject height="25.59375" width="49.546875"><div style="display: inline-block; white-space: nowrap;" xmlns="http://www.w3.org/1999/xhtml"><span class="edgeLabel">Submit</span></div></foreignObject></g></g><g class="edgeLabel"><g transform="translate(0, 0)" class="label"><foreignObject height="0" width="0"><div style="display: inline-block; white-space: nowrap;" xmlns="http://www.w3.org/1999/xhtml"><span class="edgeLabel"></span></div></foreignObject></g></g><g class="edgeLabel"><g transform="translate(0, 0)" class="label"><foreignObject height="0" width="0"><div style="display: inline-block; white-space: nowrap;" xmlns="http://www.w3.org/1999/xhtml"><span class="edgeLabel"></span></div></foreignObject></g></g><g class="edgeLabel"><g transform="translate(0, 0)" class="label"><foreignObject height="0" width="0"><div style="display: inline-block; white-space: nowrap;" xmlns="http://www.w3.org/1999/xhtml"><span class="edgeLabel"></span></div></foreignObject></g></g><g transform="translate(2075.83984375, 506.0625)" class="edgeLabel"><g transform="translate(-29.3203125, -12.796875)" class="label"><foreignObject height="25.59375" width="58.640625"><div style="display: inline-block; white-space: nowrap;" xmlns="http://www.w3.org/1999/xhtml"><span class="edgeLabel">Approve</span></div></foreignObject></g></g><g class="edgeLabel"><g transform="translate(0, 0)" class="label"><foreignObject height="0" width="0"><div style="display: inline-block; white-space: nowrap;" xmlns="http://www.w3.org/1999/xhtml"><span class="edgeLabel"></span></div></foreignObject></g></g><g class="edgeLabel"><g transform="translate(0, 0)" class="label"><foreignObject height="0" width="0"><div style="display: inline-block; white-space: nowrap;" xmlns="http://www.w3.org/1999/xhtml"><span class="edgeLabel"></span></div></foreignObject></g></g><g class="edgeLabel"><g transform="translate(0, 0)" class="label"><foreignObject height="0" width="0"><div style="display: inline-block; white-space: nowrap;" xmlns="http://www.w3.org/1999/xhtml"><span class="edgeLabel"></span></div></foreignObject></g></g><g transform="translate(2182.01953125, 662.25)" class="edgeLabel"><g transform="translate(-23.125, -12.796875)" class="label"><foreignObject height="25.59375" width="46.25"><div style="display: inline-block; white-space: nowrap;" xmlns="http://www.w3.org/1999/xhtml"><span class="edgeLabel">Reject</span></div></foreignObject></g></g><g class="edgeLabel"><g transform="translate(0, 0)" class="label"><foreignObject height="0" width="0"><div style="display: inline-block; white-space: nowrap;" xmlns="http://www.w3.org/1999/xhtml"><span class="edgeLabel"></span></div></foreignObject></g></g><g class="edgeLabel"><g transform="translate(0, 0)" class="label"><foreignObject height="0" width="0"><div style="display: inline-block; white-space: nowrap;" xmlns="http://www.w3.org/1999/xhtml"><span class="edgeLabel"></span></div></foreignObject></g></g><g class="edgeLabel"><g transform="translate(0, 0)" class="label"><foreignObject height="0" width="0"><div style="display: inline-block; white-space: nowrap;" xmlns="http://www.w3.org/1999/xhtml"><span class="edgeLabel"></span></div></foreignObject></g></g><g class="edgeLabel"><g transform="translate(0, 0)" class="label"><foreignObject height="0" width="0"><div style="display: inline-block; white-space: nowrap;" xmlns="http://www.w3.org/1999/xhtml"><span class="edgeLabel"></span></div></foreignObject></g></g><g class="edgeLabel"><g transform="translate(0, 0)" class="label"><foreignObject height="0" width="0"><div style="display: inline-block; white-space: nowrap;" xmlns="http://www.w3.org/1999/xhtml"><span class="edgeLabel"></span></div></foreignObject></g></g><g class="edgeLabel"><g transform="translate(0, 0)" class="label"><foreignObject height="0" width="0"><div style="display: inline-block; white-space: nowrap;" xmlns="http://www.w3.org/1999/xhtml"><span class="edgeLabel"></span></div></foreignObject></g></g><g class="edgeLabel"><g transform="translate(0, 0)" class="label"><foreignObject height="0" width="0"><div style="display: inline-block; white-space: nowrap;" xmlns="http://www.w3.org/1999/xhtml"><span class="edgeLabel"></span></div></foreignObject></g></g><g class="edgeLabel"><g transform="translate(0, 0)" class="label"><foreignObject height="0" width="0"><div style="display: inline-block; white-space: nowrap;" xmlns="http://www.w3.org/1999/xhtml"><span class="edgeLabel"></span></div></foreignObject></g></g><g class="edgeLabel"><g transform="translate(0, 0)" class="label"><foreignObject height="0" width="0"><div style="display: inline-block; white-space: nowrap;" xmlns="http://www.w3.org/1999/xhtml"><span class="edgeLabel"></span></div></foreignObject></g></g><g class="edgeLabel"><g transform="translate(0, 0)" class="label"><foreignObject height="0" width="0"><div style="display: inline-block; white-space: nowrap;" xmlns="http://www.w3.org/1999/xhtml"><span class="edgeLabel"></span></div></foreignObject></g></g></g><g class="nodes"><g transform="translate(527.8046875, 47.796875)" data-id="C1" data-node="true" id="flowchart-C1-48" class="node default flowchart-label"><rect height="45.59375" width="135.4375" y="-22.796875" x="-67.71875" ry="0" rx="0" style="" class="basic label-container"></rect><g transform="translate(-57.71875, -12.796875)" style="" class="label"><rect></rect><foreignObject height="25.59375" width="115.4375"><div style="display: inline-block; white-space: nowrap;" xmlns="http://www.w3.org/1999/xhtml"><span class="nodeLabel">POST /api/CTNs</span></div></foreignObject></g></g><g transform="translate(135.234375, 1288.96875)" data-id="C2" data-node="true" id="flowchart-C2-49" class="node default default flowchart-label"><rect height="45.59375" width="200.46875" y="-22.796875" x="-100.234375" ry="0" rx="0" style="" class="basic label-container"></rect><g transform="translate(-90.234375, -12.796875)" style="" class="label"><rect></rect><foreignObject height="25.59375" width="180.46875"><div style="display: inline-block; white-space: nowrap;" xmlns="http://www.w3.org/1999/xhtml"><span class="nodeLabel">GET /api/CTNs/id/status</span></div></foreignObject></g></g><g transform="translate(414.1328125, 1288.96875)" data-id="C3" data-node="true" id="flowchart-C3-50" class="node default default flowchart-label"><rect height="45.59375" width="257.328125" y="-22.796875" x="-128.6640625" ry="0" rx="0" style="" class="basic label-container"></rect><g transform="translate(-118.6640625, -12.796875)" style="" class="label"><rect></rect><foreignObject height="25.59375" width="237.328125"><div style="display: inline-block; white-space: nowrap;" xmlns="http://www.w3.org/1999/xhtml"><span class="nodeLabel">POST /api/CTNs/id/amendments</span></div></foreignObject></g></g><g transform="translate(722.78125, 1288.96875)" data-id="C4" data-node="true" id="flowchart-C4-51" class="node default default flowchart-label"><rect height="45.59375" width="259.96875" y="-22.796875" x="-129.984375" ry="0" rx="0" style="" class="basic label-container"></rect><g transform="translate(-119.984375, -12.796875)" style="" class="label"><rect></rect><foreignObject height="25.59375" width="239.96875"><div style="display: inline-block; white-space: nowrap;" xmlns="http://www.w3.org/1999/xhtml"><span class="nodeLabel">POST /api/CTNs/id/cancellations</span></div></foreignObject></g></g><g transform="translate(392.5234375, 950.3125)" data-id="C5" data-node="true" id="flowchart-C5-52" class="node default default flowchart-label"><rect height="45.59375" width="180.5625" y="-22.796875" x="-90.28125" ry="0" rx="0" style="" class="basic label-container"></rect><g transform="translate(-80.28125, -12.796875)" style="" class="label"><rect></rect><foreignObject height="25.59375" width="160.5625"><div style="display: inline-block; white-space: nowrap;" xmlns="http://www.w3.org/1999/xhtml"><span class="nodeLabel">Webhook Notifications</span></div></foreignObject></g></g><g transform="translate(2128.9296875, 168.390625)" data-id="B1" data-node="true" id="flowchart-B1-42" class="node default default flowchart-label"><rect height="45.59375" width="152.796875" y="-22.796875" x="-76.3984375" ry="0" rx="0" style="" class="basic label-container"></rect><g transform="translate(-66.3984375, -12.796875)" style="" class="label"><rect></rect><foreignObject height="25.59375" width="132.796875"><div style="display: inline-block; white-space: nowrap;" xmlns="http://www.w3.org/1999/xhtml"><span class="nodeLabel">Request Validation</span></div></foreignObject></g></g><g transform="translate(2128.9296875, 354.7265625)" data-id="B2" data-node="true" id="flowchart-B2-43" class="node default default flowchart-label"><polygon style="" transform="translate(-113.5390625,113.5390625)" class="label-container" points="113.5390625,0 227.078125,-113.5390625 113.5390625,-227.078125 0,-113.5390625"></polygon><g transform="translate(-80.7421875, -12.796875)" style="" class="label"><rect></rect><foreignObject height="25.59375" width="161.484375"><div style="display: inline-block; white-space: nowrap;" xmlns="http://www.w3.org/1999/xhtml"><span class="nodeLabel">ARCCLA Broker Review</span></div></foreignObject></g></g><g transform="translate(2075.83984375, 566.65625)" data-id="B3" data-node="true" id="flowchart-B3-44" class="node default default flowchart-label"><rect height="45.59375" width="142.359375" y="-22.796875" x="-71.1796875" ry="0" rx="0" style="" class="basic label-container"></rect><g transform="translate(-61.1796875, -12.796875)" style="" class="label"><rect></rect><foreignObject height="25.59375" width="122.359375"><div style="display: inline-block; white-space: nowrap;" xmlns="http://www.w3.org/1999/xhtml"><span class="nodeLabel">Generate Invoice</span></div></foreignObject></g></g><g transform="translate(2285.51953125, 757.84375)" data-id="B4" data-node="true" id="flowchart-B4-45" class="node default default flowchart-label"><rect height="45.59375" width="137" y="-22.796875" x="-68.5" ry="0" rx="0" style="" class="basic label-container"></rect><g transform="translate(-58.5, -12.796875)" style="" class="label"><rect></rect><foreignObject height="25.59375" width="117"><div style="display: inline-block; white-space: nowrap;" xmlns="http://www.w3.org/1999/xhtml"><span class="nodeLabel">Issue Certificate</span></div></foreignObject></g></g><g transform="translate(2071.99609375, 1409.5625)" data-id="B5" data-node="true" id="flowchart-B5-46" class="node default default flowchart-label"><rect height="45.59375" width="161.4375" y="-22.796875" x="-80.71875" ry="0" rx="0" style="" class="basic label-container"></rect><g transform="translate(-70.71875, -12.796875)" style="" class="label"><rect></rect><foreignObject height="25.59375" width="141.4375"><div style="display: inline-block; white-space: nowrap;" xmlns="http://www.w3.org/1999/xhtml"><span class="nodeLabel">Amendment Review</span></div></foreignObject></g></g><g transform="translate(2285.05859375, 1409.5625)" data-id="B6" data-node="true" id="flowchart-B6-47" class="node default default flowchart-label"><rect height="45.59375" width="164.6875" y="-22.796875" x="-82.34375" ry="0" rx="0" style="" class="basic label-container"></rect><g transform="translate(-72.34375, -12.796875)" style="" class="label"><rect></rect><foreignObject height="25.59375" width="144.6875"><div style="display: inline-block; white-space: nowrap;" xmlns="http://www.w3.org/1999/xhtml"><span class="nodeLabel">Cancellation Review</span></div></foreignObject></g></g><g transform="translate(1108.390625, 168.390625)" data-id="A1" data-node="true" id="flowchart-A1-30" class="node default default flowchart-label"><rect height="45.59375" width="233.59375" y="-22.796875" x="-116.796875" ry="0" rx="0" style="" class="basic label-container"></rect><g transform="translate(-106.796875, -12.796875)" style="" class="label"><rect></rect><foreignObject height="25.59375" width="213.59375"><div style="display: inline-block; white-space: nowrap;" xmlns="http://www.w3.org/1999/xhtml"><span class="nodeLabel">Trader Initiates CNCA Request</span></div></foreignObject></g></g><g transform="translate(1108.390625, 354.7265625)" data-id="A2" data-node="true" id="flowchart-A2-31" class="node default default flowchart-label"><rect height="45.59375" width="281.828125" y="-22.796875" x="-140.9140625" ry="0" rx="0" style="" class="basic label-container"></rect><g transform="translate(-130.9140625, -12.796875)" style="" class="label"><rect></rect><foreignObject height="25.59375" width="261.828125"><div style="display: inline-block; white-space: nowrap;" xmlns="http://www.w3.org/1999/xhtml"><span class="nodeLabel">Trader Uploads BL &amp; DUP Documents</span></div></foreignObject></g></g><g transform="translate(1108.390625, 566.65625)" data-id="A3" data-node="true" id="flowchart-A3-32" class="node default default flowchart-label"><rect height="45.59375" width="262.171875" y="-22.796875" x="-131.0859375" ry="0" rx="0" style="" class="basic label-container"></rect><g transform="translate(-121.0859375, -12.796875)" style="" class="label"><rect></rect><foreignObject height="25.59375" width="242.171875"><div style="display: inline-block; white-space: nowrap;" xmlns="http://www.w3.org/1999/xhtml"><span class="nodeLabel">Trader Nominates Customs Broker</span></div></foreignObject></g></g><g transform="translate(1108.390625, 662.25)" data-id="A4" data-node="true" id="flowchart-A4-33" class="node default default flowchart-label"><rect height="45.59375" width="277.703125" y="-22.796875" x="-138.8515625" ry="0" rx="0" style="" class="basic label-container"></rect><g transform="translate(-128.8515625, -12.796875)" style="" class="label"><rect></rect><foreignObject height="25.59375" width="257.703125"><div style="display: inline-block; white-space: nowrap;" xmlns="http://www.w3.org/1999/xhtml"><span class="nodeLabel">Customs Broker Accepts Nomination</span></div></foreignObject></g></g><g transform="translate(1108.390625, 757.84375)" data-id="A5" data-node="true" id="flowchart-A5-34" class="node default default flowchart-label"><rect height="45.59375" width="331.25" y="-22.796875" x="-165.625" ry="0" rx="0" style="" class="basic label-container"></rect><g transform="translate(-155.625, -12.796875)" style="" class="label"><rect></rect><foreignObject height="25.59375" width="311.25"><div style="display: inline-block; white-space: nowrap;" xmlns="http://www.w3.org/1999/xhtml"><span class="nodeLabel">Customs Broker Completes Certificate Data</span></div></foreignObject></g></g><g transform="translate(1108.390625, 950.3125)" data-id="A6" data-node="true" id="flowchart-A6-35" class="node default default flowchart-label"><polygon style="" transform="translate(-119.671875,119.671875)" class="label-container" points="119.671875,0 239.34375,-119.671875 119.671875,-239.34375 0,-119.671875"></polygon><g transform="translate(-86.875, -12.796875)" style="" class="label"><rect></rect><foreignObject height="25.59375" width="173.75"><div style="display: inline-block; white-space: nowrap;" xmlns="http://www.w3.org/1999/xhtml"><span class="nodeLabel">Save as Draft or Submit?</span></div></foreignObject></g></g><g transform="translate(1054.05078125, 1168.375)" data-id="A7" data-node="true" id="flowchart-A7-36" class="node default default flowchart-label"><rect height="45.59375" width="113.890625" y="-22.796875" x="-56.9453125" ry="0" rx="0" style="" class="basic label-container"></rect><g transform="translate(-46.9453125, -12.796875)" style="" class="label"><rect></rect><foreignObject height="25.59375" width="93.890625"><div style="display: inline-block; white-space: nowrap;" xmlns="http://www.w3.org/1999/xhtml"><span class="nodeLabel">Save as Draft</span></div></foreignObject></g></g><g transform="translate(1242.01953125, 1168.375)" data-id="A8" data-node="true" id="flowchart-A8-37" class="node default default flowchart-label"><rect height="45.59375" width="162.046875" y="-22.796875" x="-81.0234375" ry="0" rx="0" style="" class="basic label-container"></rect><g transform="translate(-71.0234375, -12.796875)" style="" class="label"><rect></rect><foreignObject height="25.59375" width="142.046875"><div style="display: inline-block; white-space: nowrap;" xmlns="http://www.w3.org/1999/xhtml"><span class="nodeLabel">Submit for Approval</span></div></foreignObject></g></g><g transform="translate(1662.17578125, 662.25)" data-id="A9" data-node="true" id="flowchart-A9-38" class="node default default flowchart-label"><rect height="45.59375" width="160.296875" y="-22.796875" x="-80.1484375" ry="0" rx="0" style="" class="basic label-container"></rect><g transform="translate(-70.1484375, -12.796875)" style="" class="label"><rect></rect><foreignObject height="25.59375" width="140.296875"><div style="display: inline-block; white-space: nowrap;" xmlns="http://www.w3.org/1999/xhtml"><span class="nodeLabel">Payment Processing</span></div></foreignObject></g></g><g transform="translate(1632.44921875, 950.3125)" data-id="A10" data-node="true" id="flowchart-A10-39" class="node default default flowchart-label"><rect height="45.59375" width="166.328125" y="-22.796875" x="-83.1640625" ry="0" rx="0" style="" class="basic label-container"></rect><g transform="translate(-73.1640625, -12.796875)" style="" class="label"><rect></rect><foreignObject height="25.59375" width="146.328125"><div style="display: inline-block; white-space: nowrap;" xmlns="http://www.w3.org/1999/xhtml"><span class="nodeLabel">Certificate Retrieval</span></div></foreignObject></g></g><g transform="translate(1489.83984375, 1168.375)" data-id="A11" data-node="true" id="flowchart-A11-40" class="node default default flowchart-label"><rect height="45.59375" width="233.59375" y="-22.796875" x="-116.796875" ry="0" rx="0" style="" class="basic label-container"></rect><g transform="translate(-106.796875, -12.796875)" style="" class="label"><rect></rect><foreignObject height="25.59375" width="213.59375"><div style="display: inline-block; white-space: nowrap;" xmlns="http://www.w3.org/1999/xhtml"><span class="nodeLabel">Amendment Request Creation</span></div></foreignObject></g></g><g transform="translate(1775.05859375, 1168.375)" data-id="A12" data-node="true" id="flowchart-A12-41" class="node default default flowchart-label"><rect height="45.59375" width="236.84375" y="-22.796875" x="-118.421875" ry="0" rx="0" style="" class="basic label-container"></rect><g transform="translate(-108.421875, -12.796875)" style="" class="label"><rect></rect><foreignObject height="25.59375" width="216.84375"><div style="display: inline-block; white-space: nowrap;" xmlns="http://www.w3.org/1999/xhtml"><span class="nodeLabel">Cancellation Request Creation</span></div></foreignObject></g></g></g></g></g></svg>