<svg aria-roledescription="flowchart-v2" role="graphics-document document" viewBox="-8 -8 1228.62109375 2553.5" style="max-width: 1228.62109375px;" xmlns:xlink="http://www.w3.org/1999/xlink" xmlns="http://www.w3.org/2000/svg" width="100%" id="mermaid-1763036416265"><style>#mermaid-1763036416265{font-family:"trebuchet ms",verdana,arial,sans-serif;font-size:16px;fill:#333;}#mermaid-1763036416265 .error-icon{fill:#552222;}#mermaid-1763036416265 .error-text{fill:#552222;stroke:#552222;}#mermaid-1763036416265 .edge-thickness-normal{stroke-width:2px;}#mermaid-1763036416265 .edge-thickness-thick{stroke-width:3.5px;}#mermaid-1763036416265 .edge-pattern-solid{stroke-dasharray:0;}#mermaid-1763036416265 .edge-pattern-dashed{stroke-dasharray:3;}#mermaid-1763036416265 .edge-pattern-dotted{stroke-dasharray:2;}#mermaid-1763036416265 .marker{fill:#333333;stroke:#333333;}#mermaid-1763036416265 .marker.cross{stroke:#333333;}#mermaid-1763036416265 svg{font-family:"trebuchet ms",verdana,arial,sans-serif;font-size:16px;}#mermaid-1763036416265 .label{font-family:"trebuchet ms",verdana,arial,sans-serif;color:#333;}#mermaid-1763036416265 .cluster-label text{fill:#333;}#mermaid-1763036416265 .cluster-label span,#mermaid-1763036416265 p{color:#333;}#mermaid-1763036416265 .label text,#mermaid-1763036416265 span,#mermaid-1763036416265 p{fill:#333;color:#333;}#mermaid-1763036416265 .node rect,#mermaid-1763036416265 .node circle,#mermaid-1763036416265 .node ellipse,#mermaid-1763036416265 .node polygon,#mermaid-1763036416265 .node path{fill:#ECECFF;stroke:#9370DB;stroke-width:1px;}#mermaid-1763036416265 .flowchart-label text{text-anchor:middle;}#mermaid-1763036416265 .node .katex path{fill:#000;stroke:#000;stroke-width:1px;}#mermaid-1763036416265 .node .label{text-align:center;}#mermaid-1763036416265 .node.clickable{cursor:pointer;}#mermaid-1763036416265 .arrowheadPath{fill:#333333;}#mermaid-1763036416265 .edgePath .path{stroke:#333333;stroke-width:2.0px;}#mermaid-1763036416265 .flowchart-link{stroke:#333333;fill:none;}#mermaid-1763036416265 .edgeLabel{background-color:#e8e8e8;text-align:center;}#mermaid-1763036416265 .edgeLabel rect{opacity:0.5;background-color:#e8e8e8;fill:#e8e8e8;}#mermaid-1763036416265 .labelBkg{background-color:rgba(232, 232, 232, 0.5);}#mermaid-1763036416265 .cluster rect{fill:#ffffde;stroke:#aaaa33;stroke-width:1px;}#mermaid-1763036416265 .cluster text{fill:#333;}#mermaid-1763036416265 .cluster span,#mermaid-1763036416265 p{color:#333;}#mermaid-1763036416265 div.mermaidTooltip{position:absolute;text-align:center;max-width:200px;padding:2px;font-family:"trebuchet ms",verdana,arial,sans-serif;font-size:12px;background:hsl(80, 100%, 96.2745098039%);border:1px solid #aaaa33;border-radius:2px;pointer-events:none;z-index:100;}#mermaid-1763036416265 .flowchartTitleText{text-anchor:middle;font-size:18px;fill:#333;}#mermaid-1763036416265 :root{--mermaid-font-family:"trebuchet ms",verdana,arial,sans-serif;}</style><g><marker orient="auto" markerHeight="12" markerWidth="12" markerUnits="userSpaceOnUse" refY="5" refX="6" viewBox="0 0 10 10" class="marker flowchart" id="mermaid-1763036416265_flowchart-pointEnd"><path style="stroke-width: 1; stroke-dasharray: 1, 0;" class="arrowMarkerPath" d="M 0 0 L 10 5 L 0 10 z"></path></marker><marker orient="auto" markerHeight="12" markerWidth="12" markerUnits="userSpaceOnUse" refY="5" refX="4.5" viewBox="0 0 10 10" class="marker flowchart" id="mermaid-1763036416265_flowchart-pointStart"><path style="stroke-width: 1; stroke-dasharray: 1, 0;" class="arrowMarkerPath" d="M 0 5 L 10 10 L 10 0 z"></path></marker><marker orient="auto" markerHeight="11" markerWidth="11" markerUnits="userSpaceOnUse" refY="5" refX="11" viewBox="0 0 10 10" class="marker flowchart" id="mermaid-1763036416265_flowchart-circleEnd"><circle style="stroke-width: 1; stroke-dasharray: 1, 0;" class="arrowMarkerPath" r="5" cy="5" cx="5"></circle></marker><marker orient="auto" markerHeight="11" markerWidth="11" markerUnits="userSpaceOnUse" refY="5" refX="-1" viewBox="0 0 10 10" class="marker flowchart" id="mermaid-1763036416265_flowchart-circleStart"><circle style="stroke-width: 1; stroke-dasharray: 1, 0;" class="arrowMarkerPath" r="5" cy="5" cx="5"></circle></marker><marker orient="auto" markerHeight="11" markerWidth="11" markerUnits="userSpaceOnUse" refY="5.2" refX="12" viewBox="0 0 11 11" class="marker cross flowchart" id="mermaid-1763036416265_flowchart-crossEnd"><path style="stroke-width: 2; stroke-dasharray: 1, 0;" class="arrowMarkerPath" d="M 1,1 l 9,9 M 10,1 l -9,9"></path></marker><marker orient="auto" markerHeight="11" markerWidth="11" markerUnits="userSpaceOnUse" refY="5.2" refX="-1" viewBox="0 0 11 11" class="marker cross flowchart" id="mermaid-1763036416265_flowchart-crossStart"><path style="stroke-width: 2; stroke-dasharray: 1, 0;" class="arrowMarkerPath" d="M 1,1 l 9,9 M 10,1 l -9,9"></path></marker><g class="root"><g class="clusters"><g id="Notification" class="cluster default flowchart-label"><rect height="382.375" width="338.4765625" y="2155.125" x="37.37890625" ry="0" rx="0" style=""></rect><g transform="translate(153.125, 2155.125)" class="cluster-label"><foreignObject height="25.59375" width="106.984375"><div style="display: inline-block; white-space: nowrap;" xmlns="http://www.w3.org/1999/xhtml"><span class="nodeLabel">Status Updates</span></div></foreignObject></g></g><g id="Review" class="cluster default flowchart-label"><rect height="799.390625" width="703.359375" y="1280.140625" x="0" ry="0" rx="0" style=""></rect><g transform="translate(268.0859375, 1280.140625)" class="cluster-label"><foreignObject height="25.59375" width="167.1875"><div style="display: inline-block; white-space: nowrap;" xmlns="http://www.w3.org/1999/xhtml"><span class="nodeLabel">ARCCLA Review Process</span></div></foreignObject></g></g><g id="Creation" class="cluster default flowchart-label"><rect height="1204.546875" width="692.3125" y="0" x="195.296875" ry="0" rx="0" style=""></rect><g transform="translate(434.65625, 0)" class="cluster-label"><foreignObject height="25.59375" width="213.59375"><div style="display: inline-block; white-space: nowrap;" xmlns="http://www.w3.org/1999/xhtml"><span class="nodeLabel">Amendment Request Creation</span></div></foreignObject></g></g><g id="Eligibility" class="cluster default flowchart-label"><rect height="555.390625" width="288.609375" y="120.59375" x="907.609375" ry="0" rx="0" style=""></rect><g transform="translate(948.7578125, 120.59375)" class="cluster-label"><foreignObject height="25.59375" width="206.3125"><div style="display: inline-block; white-space: nowrap;" xmlns="http://www.w3.org/1999/xhtml"><span class="nodeLabel">Amendment Eligibility Check</span></div></foreignObject></g></g></g><g class="edgePaths"><path marker-end="url(#mermaid-1763036416265_flowchart-pointEnd)" style="fill:none;" class="edge-thickness-normal edge-pattern-solid flowchart-link LS-C1 LE-E1" id="L-C1-E1-0" d="M598.457,70.594L598.457,74.76C598.457,78.927,598.457,87.26,598.457,95.594C598.457,103.927,598.457,112.26,656.989,122.597C715.522,132.933,832.586,145.272,891.119,151.442L949.651,157.612"></path><path marker-end="url(#mermaid-1763036416265_flowchart-pointEnd)" style="fill:none;" class="edge-thickness-normal edge-pattern-solid flowchart-link LS-E1 LE-E2" id="L-E1-E2-0" d="M1051.914,191.188L1051.914,195.354C1051.914,199.521,1051.914,207.854,1051.914,215.304C1051.914,222.754,1051.914,229.321,1051.914,232.604L1051.914,235.888"></path><path marker-end="url(#mermaid-1763036416265_flowchart-pointEnd)" style="fill:none;" class="edge-thickness-normal edge-pattern-solid flowchart-link LS-E2 LE-E3" id="L-E2-E3-0" d="M1051.914,286.781L1051.914,290.948C1051.914,295.115,1051.914,303.448,1051.914,310.898C1051.914,318.348,1051.914,324.915,1051.914,328.198L1051.914,331.481"></path><path marker-end="url(#mermaid-1763036416265_flowchart-pointEnd)" style="fill:none;" class="edge-thickness-normal edge-pattern-solid flowchart-link LS-E3 LE-E4" id="L-E3-E4-0" d="M1051.914,382.375L1051.914,386.542C1051.914,390.708,1051.914,399.042,1051.98,406.575C1052.046,414.109,1052.178,420.842,1052.244,424.209L1052.31,427.576"></path><path marker-end="url(#mermaid-1763036416265_flowchart-pointEnd)" style="fill:none;" class="edge-thickness-normal edge-pattern-solid flowchart-link LS-E4 LE-C2" id="L-E4-C2-0" d="M1021.841,620.912L1018.161,630.09C1014.481,639.269,1007.122,657.627,917.556,673.105C827.991,688.583,656.22,701.182,570.335,712.898C484.449,724.614,484.449,735.446,484.449,740.862L484.449,746.278"></path><path marker-end="url(#mermaid-1763036416265_flowchart-pointEnd)" style="fill:none;" class="edge-thickness-normal edge-pattern-solid flowchart-link LS-C2 LE-C3" id="L-C2-C3-0" d="M484.449,797.172L484.449,801.339C484.449,805.505,484.449,813.839,484.449,821.289C484.449,828.739,484.449,835.305,484.449,838.589L484.449,841.872"></path><path marker-end="url(#mermaid-1763036416265_flowchart-pointEnd)" style="fill:none;" class="edge-thickness-normal edge-pattern-solid flowchart-link LS-C3 LE-C4" id="L-C3-C4-0" d="M484.449,892.766L484.449,896.932C484.449,901.099,484.449,909.432,484.449,916.882C484.449,924.332,484.449,930.899,484.449,934.182L484.449,937.466"></path><path marker-end="url(#mermaid-1763036416265_flowchart-pointEnd)" style="fill:none;" class="edge-thickness-normal edge-pattern-solid flowchart-link LS-C4 LE-C5" id="L-C4-C5-0" d="M484.449,988.359L484.449,992.526C484.449,996.693,484.449,1005.026,484.449,1012.476C484.449,1019.926,484.449,1026.493,484.449,1029.776L484.449,1033.059"></path><path marker-end="url(#mermaid-1763036416265_flowchart-pointEnd)" style="fill:none;" class="edge-thickness-normal edge-pattern-solid flowchart-link LS-C5 LE-C6" id="L-C5-C6-0" d="M484.449,1083.953L484.449,1088.12C484.449,1092.286,484.449,1100.62,484.449,1108.07C484.449,1115.52,484.449,1122.086,484.449,1125.37L484.449,1128.653"></path><path marker-end="url(#mermaid-1763036416265_flowchart-pointEnd)" style="fill:none;" class="edge-thickness-normal edge-pattern-solid flowchart-link LS-E4 LE-ERR" id="L-E4-ERR-0" d="M1086.994,616.904L1091.506,626.751C1096.018,636.598,1105.042,656.291,1109.554,672.437C1114.066,688.583,1114.066,701.182,1114.066,712.898C1114.066,724.614,1114.066,735.446,1114.066,740.862L1114.066,746.278"></path><path marker-end="url(#mermaid-1763036416265_flowchart-pointEnd)" style="fill:none;" class="edge-thickness-normal edge-pattern-solid flowchart-link LS-C6 LE-R1" id="L-C6-R1-0" d="M390.786,1179.547L373.666,1183.714C356.547,1187.88,322.309,1196.214,305.19,1206.68C288.07,1217.146,288.07,1229.745,288.07,1242.344C288.07,1254.943,288.07,1267.542,288.07,1277.124C288.07,1286.707,288.07,1293.274,288.07,1296.557L288.07,1299.841"></path><path marker-end="url(#mermaid-1763036416265_flowchart-pointEnd)" style="fill:none;" class="edge-thickness-normal edge-pattern-solid flowchart-link LS-R1 LE-R2" id="L-R1-R2-0" d="M288.07,1350.734L288.07,1354.901C288.07,1359.068,288.07,1367.401,288.07,1374.851C288.07,1382.301,288.07,1388.868,288.07,1392.151L288.07,1395.434"></path><path marker-end="url(#mermaid-1763036416265_flowchart-pointEnd)" style="fill:none;" class="edge-thickness-normal edge-pattern-solid flowchart-link LS-R2 LE-R3" id="L-R2-R3-0" d="M288.07,1446.328L288.07,1450.495C288.07,1454.661,288.07,1462.995,288.07,1470.445C288.07,1477.895,288.07,1484.461,288.07,1487.745L288.07,1491.028"></path><path marker-end="url(#mermaid-1763036416265_flowchart-pointEnd)" style="fill:none;" class="edge-thickness-normal edge-pattern-solid flowchart-link LS-R3 LE-R4" id="L-R3-R4-0" d="M288.07,1541.922L288.07,1546.089C288.07,1550.255,288.07,1558.589,288.136,1566.122C288.202,1573.656,288.334,1580.389,288.4,1583.756L288.466,1587.123"></path><path marker-end="url(#mermaid-1763036416265_flowchart-pointEnd)" style="fill:none;" class="edge-thickness-normal edge-pattern-solid flowchart-link LS-R4 LE-R5" id="L-R4-R5-0" d="M238.271,1762.357L225.841,1776.956C213.411,1791.555,188.551,1820.754,176.121,1840.77C163.691,1860.785,163.691,1871.618,163.691,1877.034L163.691,1882.45"></path><path marker-end="url(#mermaid-1763036416265_flowchart-pointEnd)" style="fill:none;" class="edge-thickness-normal edge-pattern-solid flowchart-link LS-R5 LE-R6" id="L-R5-R6-0" d="M163.691,1933.344L163.691,1939.643C163.691,1945.943,163.691,1958.542,163.691,1970.257C163.691,1981.973,163.691,1992.805,163.691,1998.221L163.691,2003.638"></path><path marker-end="url(#mermaid-1763036416265_flowchart-pointEnd)" style="fill:none;" class="edge-thickness-normal edge-pattern-solid flowchart-link LS-R6 LE-N1" id="L-R6-N1-0" d="M163.691,2054.531L163.691,2058.698C163.691,2062.865,163.691,2071.198,163.691,2081.664C163.691,2092.13,163.691,2104.729,163.691,2117.328C163.691,2129.927,163.691,2142.526,164.382,2152.128C165.073,2161.729,166.455,2168.333,167.146,2171.635L167.837,2174.937"></path><path marker-end="url(#mermaid-1763036416265_flowchart-pointEnd)" style="fill:none;" class="edge-thickness-normal edge-pattern-solid flowchart-link LS-R4 LE-R7" id="L-R4-R7-0" d="M338.788,1762.438L351.003,1777.024C363.218,1791.61,387.648,1820.781,399.863,1845.466C412.078,1870.151,412.078,1890.349,412.078,1910.547C412.078,1930.745,412.078,1950.943,412.078,1966.458C412.078,1981.973,412.078,1992.805,412.078,1998.221L412.078,2003.638"></path><path marker-end="url(#mermaid-1763036416265_flowchart-pointEnd)" style="fill:none;" class="edge-thickness-normal edge-pattern-solid flowchart-link LS-R7 LE-N1" id="L-R7-N1-0" d="M357.525,2054.531L347.554,2058.698C337.583,2062.865,317.641,2071.198,307.67,2081.664C297.699,2092.13,297.699,2104.729,297.699,2117.328C297.699,2129.927,297.699,2142.526,287.713,2152.675C277.727,2162.823,257.755,2170.521,247.769,2174.37L237.783,2178.219"></path><path marker-end="url(#mermaid-1763036416265_flowchart-pointEnd)" style="fill:none;" class="edge-thickness-normal edge-pattern-solid flowchart-link LS-N1 LE-N2" id="L-N1-N2-0" d="M173.691,2225.719L173.691,2229.885C173.691,2234.052,173.691,2242.385,173.691,2249.835C173.691,2257.285,173.691,2263.852,173.691,2267.135L173.691,2270.419"></path><path marker-end="url(#mermaid-1763036416265_flowchart-pointEnd)" style="fill:none;" class="edge-thickness-normal edge-pattern-solid flowchart-link LS-N2 LE-N3" id="L-N2-N3-0" d="M173.691,2321.313L173.691,2325.479C173.691,2329.646,173.691,2337.979,173.691,2345.429C173.691,2352.879,173.691,2359.446,173.691,2362.729L173.691,2366.013"></path><path marker-end="url(#mermaid-1763036416265_flowchart-pointEnd)" style="fill:none;" class="edge-thickness-normal edge-pattern-solid flowchart-link LS-N3 LE-N4" id="L-N3-N4-0" d="M173.691,2416.906L173.691,2421.073C173.691,2425.24,173.691,2433.573,173.691,2441.023C173.691,2448.473,173.691,2455.04,173.691,2458.323L173.691,2461.606"></path><path marker-end="url(#mermaid-1763036416265_flowchart-pointEnd)" style="fill:none;stroke-width:2px;stroke-dasharray:3;" class="edge-thickness-normal edge-pattern-dotted flowchart-link LS-C6 LE-API1" id="L-C6-API1-0" d="M594.996,1173.242L629.969,1178.459C664.943,1183.677,734.889,1194.112,769.863,1205.629C804.836,1217.146,804.836,1229.745,804.836,1242.344C804.836,1254.943,804.836,1267.542,804.836,1277.124C804.836,1286.707,804.836,1293.274,804.836,1296.557L804.836,1299.841"></path><path marker-end="url(#mermaid-1763036416265_flowchart-pointEnd)" style="fill:none;stroke-width:2px;stroke-dasharray:3;" class="edge-thickness-normal edge-pattern-dotted flowchart-link LS-R5 LE-API2" id="L-R5-API2-0" d="M240.59,1922.372L293.445,1930.5C346.299,1938.628,452.009,1954.885,534.115,1970.538C616.221,1986.191,674.724,2001.242,703.975,2008.767L733.227,2016.292"></path><path marker-end="url(#mermaid-1763036416265_flowchart-pointEnd)" style="fill:none;stroke-width:2px;stroke-dasharray:3;" class="edge-thickness-normal edge-pattern-dotted flowchart-link LS-R7 LE-API3" id="L-R7-API3-0" d="M476.772,2054.531L488.597,2058.698C500.421,2062.865,524.07,2071.198,535.894,2081.664C547.719,2092.13,547.719,2104.729,547.719,2117.328C547.719,2129.927,547.719,2142.526,547.719,2152.109C547.719,2161.692,547.719,2168.258,547.719,2171.542L547.719,2174.825"></path></g><g class="edgeLabels"><g class="edgeLabel"><g transform="translate(0, 0)" class="label"><foreignObject height="0" width="0"><div style="display: inline-block; white-space: nowrap;" xmlns="http://www.w3.org/1999/xhtml"><span class="edgeLabel"></span></div></foreignObject></g></g><g class="edgeLabel"><g transform="translate(0, 0)" class="label"><foreignObject height="0" width="0"><div style="display: inline-block; white-space: nowrap;" xmlns="http://www.w3.org/1999/xhtml"><span class="edgeLabel"></span></div></foreignObject></g></g><g class="edgeLabel"><g transform="translate(0, 0)" class="label"><foreignObject height="0" width="0"><div style="display: inline-block; white-space: nowrap;" xmlns="http://www.w3.org/1999/xhtml"><span class="edgeLabel"></span></div></foreignObject></g></g><g class="edgeLabel"><g transform="translate(0, 0)" class="label"><foreignObject height="0" width="0"><div style="display: inline-block; white-space: nowrap;" xmlns="http://www.w3.org/1999/xhtml"><span class="edgeLabel"></span></div></foreignObject></g></g><g transform="translate(484.44921875, 713.78125)" class="edgeLabel"><g transform="translate(-11.328125, -12.796875)" class="label"><foreignObject height="25.59375" width="22.65625"><div style="display: inline-block; white-space: nowrap;" xmlns="http://www.w3.org/1999/xhtml"><span class="edgeLabel">Yes</span></div></foreignObject></g></g><g class="edgeLabel"><g transform="translate(0, 0)" class="label"><foreignObject height="0" width="0"><div style="display: inline-block; white-space: nowrap;" xmlns="http://www.w3.org/1999/xhtml"><span class="edgeLabel"></span></div></foreignObject></g></g><g class="edgeLabel"><g transform="translate(0, 0)" class="label"><foreignObject height="0" width="0"><div style="display: inline-block; white-space: nowrap;" xmlns="http://www.w3.org/1999/xhtml"><span class="edgeLabel"></span></div></foreignObject></g></g><g class="edgeLabel"><g transform="translate(0, 0)" class="label"><foreignObject height="0" width="0"><div style="display: inline-block; white-space: nowrap;" xmlns="http://www.w3.org/1999/xhtml"><span class="edgeLabel"></span></div></foreignObject></g></g><g class="edgeLabel"><g transform="translate(0, 0)" class="label"><foreignObject height="0" width="0"><div style="display: inline-block; white-space: nowrap;" xmlns="http://www.w3.org/1999/xhtml"><span class="edgeLabel"></span></div></foreignObject></g></g><g transform="translate(1114.06640625, 713.78125)" class="edgeLabel"><g transform="translate(-9.3984375, -12.796875)" class="label"><foreignObject height="25.59375" width="18.796875"><div style="display: inline-block; white-space: nowrap;" xmlns="http://www.w3.org/1999/xhtml"><span class="edgeLabel">No</span></div></foreignObject></g></g><g class="edgeLabel"><g transform="translate(0, 0)" class="label"><foreignObject height="0" width="0"><div style="display: inline-block; white-space: nowrap;" xmlns="http://www.w3.org/1999/xhtml"><span class="edgeLabel"></span></div></foreignObject></g></g><g class="edgeLabel"><g transform="translate(0, 0)" class="label"><foreignObject height="0" width="0"><div style="display: inline-block; white-space: nowrap;" xmlns="http://www.w3.org/1999/xhtml"><span class="edgeLabel"></span></div></foreignObject></g></g><g class="edgeLabel"><g transform="translate(0, 0)" class="label"><foreignObject height="0" width="0"><div style="display: inline-block; white-space: nowrap;" xmlns="http://www.w3.org/1999/xhtml"><span class="edgeLabel"></span></div></foreignObject></g></g><g class="edgeLabel"><g transform="translate(0, 0)" class="label"><foreignObject height="0" width="0"><div style="display: inline-block; white-space: nowrap;" xmlns="http://www.w3.org/1999/xhtml"><span class="edgeLabel"></span></div></foreignObject></g></g><g transform="translate(163.69140625, 1849.953125)" class="edgeLabel"><g transform="translate(-29.3203125, -12.796875)" class="label"><foreignObject height="25.59375" width="58.640625"><div style="display: inline-block; white-space: nowrap;" xmlns="http://www.w3.org/1999/xhtml"><span class="edgeLabel">Approve</span></div></foreignObject></g></g><g class="edgeLabel"><g transform="translate(0, 0)" class="label"><foreignObject height="0" width="0"><div style="display: inline-block; white-space: nowrap;" xmlns="http://www.w3.org/1999/xhtml"><span class="edgeLabel"></span></div></foreignObject></g></g><g class="edgeLabel"><g transform="translate(0, 0)" class="label"><foreignObject height="0" width="0"><div style="display: inline-block; white-space: nowrap;" xmlns="http://www.w3.org/1999/xhtml"><span class="edgeLabel"></span></div></foreignObject></g></g><g transform="translate(412.078125, 1910.546875)" class="edgeLabel"><g transform="translate(-23.125, -12.796875)" class="label"><foreignObject height="25.59375" width="46.25"><div style="display: inline-block; white-space: nowrap;" xmlns="http://www.w3.org/1999/xhtml"><span class="edgeLabel">Reject</span></div></foreignObject></g></g><g class="edgeLabel"><g transform="translate(0, 0)" class="label"><foreignObject height="0" width="0"><div style="display: inline-block; white-space: nowrap;" xmlns="http://www.w3.org/1999/xhtml"><span class="edgeLabel"></span></div></foreignObject></g></g><g class="edgeLabel"><g transform="translate(0, 0)" class="label"><foreignObject height="0" width="0"><div style="display: inline-block; white-space: nowrap;" xmlns="http://www.w3.org/1999/xhtml"><span class="edgeLabel"></span></div></foreignObject></g></g><g class="edgeLabel"><g transform="translate(0, 0)" class="label"><foreignObject height="0" width="0"><div style="display: inline-block; white-space: nowrap;" xmlns="http://www.w3.org/1999/xhtml"><span class="edgeLabel"></span></div></foreignObject></g></g><g class="edgeLabel"><g transform="translate(0, 0)" class="label"><foreignObject height="0" width="0"><div style="display: inline-block; white-space: nowrap;" xmlns="http://www.w3.org/1999/xhtml"><span class="edgeLabel"></span></div></foreignObject></g></g><g transform="translate(804.8359375, 1242.34375)" class="edgeLabel"><g transform="translate(-118.6640625, -12.796875)" class="label"><foreignObject height="25.59375" width="237.328125"><div style="display: inline-block; white-space: nowrap;" xmlns="http://www.w3.org/1999/xhtml"><span class="edgeLabel">POST /api/CTNs/id/amendments</span></div></foreignObject></g></g><g transform="translate(557.71875, 1971.140625)" class="edgeLabel"><g transform="translate(-125.640625, -12.796875)" class="label"><foreignObject height="25.59375" width="251.28125"><div style="display: inline-block; white-space: nowrap;" xmlns="http://www.w3.org/1999/xhtml"><span class="edgeLabel">PUT /api/amendments/id/approve</span></div></foreignObject></g></g><g transform="translate(547.71875, 2117.328125)" class="edgeLabel"><g transform="translate(-118.7421875, -12.796875)" class="label"><foreignObject height="25.59375" width="237.484375"><div style="display: inline-block; white-space: nowrap;" xmlns="http://www.w3.org/1999/xhtml"><span class="edgeLabel">PUT /api/amendments/id/reject</span></div></foreignObject></g></g></g><g class="nodes"><g transform="translate(173.69140625, 2202.921875)" data-id="N1" data-node="true" id="flowchart-N1-109" class="node default default flowchart-label"><rect height="45.59375" width="179.5" y="-22.796875" x="-89.75" ry="0" rx="0" style="" class="basic label-container"></rect><g transform="translate(-79.75, -12.796875)" style="" class="label"><rect></rect><foreignObject height="25.59375" width="159.5"><div style="display: inline-block; white-space: nowrap;" xmlns="http://www.w3.org/1999/xhtml"><span class="nodeLabel">Notify Customs Broker</span></div></foreignObject></g></g><g transform="translate(173.69140625, 2298.515625)" data-id="N2" data-node="true" id="flowchart-N2-110" class="node default default flowchart-label"><rect height="45.59375" width="202.625" y="-22.796875" x="-101.3125" ry="0" rx="0" style="" class="basic label-container"></rect><g transform="translate(-91.3125, -12.796875)" style="" class="label"><rect></rect><foreignObject height="25.59375" width="182.625"><div style="display: inline-block; white-space: nowrap;" xmlns="http://www.w3.org/1999/xhtml"><span class="nodeLabel">Update Certificate Status</span></div></foreignObject></g></g><g transform="translate(173.69140625, 2394.109375)" data-id="N3" data-node="true" id="flowchart-N3-111" class="node default default flowchart-label"><rect height="45.59375" width="194.484375" y="-22.796875" x="-97.2421875" ry="0" rx="0" style="" class="basic label-container"></rect><g transform="translate(-87.2421875, -12.796875)" style="" class="label"><rect></rect><foreignObject height="25.59375" width="174.484375"><div style="display: inline-block; white-space: nowrap;" xmlns="http://www.w3.org/1999/xhtml"><span class="nodeLabel">Send Email Notifications</span></div></foreignObject></g></g><g transform="translate(173.69140625, 2489.703125)" data-id="N4" data-node="true" id="flowchart-N4-112" class="node default default flowchart-label"><rect height="45.59375" width="149.59375" y="-22.796875" x="-74.796875" ry="0" rx="0" style="" class="basic label-container"></rect><g transform="translate(-64.796875, -12.796875)" style="" class="label"><rect></rect><foreignObject height="25.59375" width="129.59375"><div style="display: inline-block; white-space: nowrap;" xmlns="http://www.w3.org/1999/xhtml"><span class="nodeLabel">Update Audit Trail</span></div></foreignObject></g></g><g transform="translate(288.0703125, 1327.9375)" data-id="R1" data-node="true" id="flowchart-R1-102" class="node default flowchart-label"><rect height="45.59375" width="282.265625" y="-22.796875" x="-141.1328125" ry="0" rx="0" style="" class="basic label-container"></rect><g transform="translate(-131.1328125, -12.796875)" style="" class="label"><rect></rect><foreignObject height="25.59375" width="262.265625"><div style="display: inline-block; white-space: nowrap;" xmlns="http://www.w3.org/1999/xhtml"><span class="nodeLabel">ARCCLA Broker Receives Notification</span></div></foreignObject></g></g><g transform="translate(288.0703125, 1423.53125)" data-id="R2" data-node="true" id="flowchart-R2-103" class="node default default flowchart-label"><rect height="45.59375" width="214.421875" y="-22.796875" x="-107.2109375" ry="0" rx="0" style="" class="basic label-container"></rect><g transform="translate(-97.2109375, -12.796875)" style="" class="label"><rect></rect><foreignObject height="25.59375" width="194.421875"><div style="display: inline-block; white-space: nowrap;" xmlns="http://www.w3.org/1999/xhtml"><span class="nodeLabel">Review Amendment Details</span></div></foreignObject></g></g><g transform="translate(288.0703125, 1519.125)" data-id="R3" data-node="true" id="flowchart-R3-104" class="node default default flowchart-label"><rect height="45.59375" width="191.90625" y="-22.796875" x="-95.953125" ry="0" rx="0" style="" class="basic label-container"></rect><g transform="translate(-85.953125, -12.796875)" style="" class="label"><rect></rect><foreignObject height="25.59375" width="171.90625"><div style="display: inline-block; white-space: nowrap;" xmlns="http://www.w3.org/1999/xhtml"><span class="nodeLabel">Perform Impact Analysis</span></div></foreignObject></g></g><g transform="translate(288.0703125, 1702.0390625)" data-id="R4" data-node="true" id="flowchart-R4-105" class="node default default flowchart-label"><polygon style="" transform="translate(-110.1171875,110.1171875)" class="label-container" points="110.1171875,0 220.234375,-110.1171875 110.1171875,-220.234375 0,-110.1171875"></polygon><g transform="translate(-77.3203125, -12.796875)" style="" class="label"><rect></rect><foreignObject height="25.59375" width="154.640625"><div style="display: inline-block; white-space: nowrap;" xmlns="http://www.w3.org/1999/xhtml"><span class="nodeLabel">Approve Amendment?</span></div></foreignObject></g></g><g transform="translate(163.69140625, 1910.546875)" data-id="R5" data-node="true" id="flowchart-R5-106" class="node default default flowchart-label"><rect height="45.59375" width="153.796875" y="-22.796875" x="-76.8984375" ry="0" rx="0" style="" class="basic label-container"></rect><g transform="translate(-66.8984375, -12.796875)" style="" class="label"><rect></rect><foreignObject height="25.59375" width="133.796875"><div style="display: inline-block; white-space: nowrap;" xmlns="http://www.w3.org/1999/xhtml"><span class="nodeLabel">Update Certificate</span></div></foreignObject></g></g><g transform="translate(163.69140625, 2031.734375)" data-id="R6" data-node="true" id="flowchart-R6-107" class="node default default flowchart-label"><rect height="45.59375" width="232.5" y="-22.796875" x="-116.25" ry="0" rx="0" style="" class="basic label-container"></rect><g transform="translate(-106.25, -12.796875)" style="" class="label"><rect></rect><foreignObject height="25.59375" width="212.5"><div style="display: inline-block; white-space: nowrap;" xmlns="http://www.w3.org/1999/xhtml"><span class="nodeLabel">Generate Amendment Invoice</span></div></foreignObject></g></g><g transform="translate(412.078125, 2031.734375)" data-id="R7" data-node="true" id="flowchart-R7-108" class="node default default flowchart-label"><rect height="45.59375" width="163.53125" y="-22.796875" x="-81.765625" ry="0" rx="0" style="" class="basic label-container"></rect><g transform="translate(-71.765625, -12.796875)" style="" class="label"><rect></rect><foreignObject height="25.59375" width="143.53125"><div style="display: inline-block; white-space: nowrap;" xmlns="http://www.w3.org/1999/xhtml"><span class="nodeLabel">Reject with Reasons</span></div></foreignObject></g></g><g transform="translate(598.45703125, 47.796875)" data-id="C1" data-node="true" id="flowchart-C1-96" class="node default flowchart-label"><rect height="45.59375" width="284.75" y="-22.796875" x="-142.375" ry="0" rx="0" style="" class="basic label-container"></rect><g transform="translate(-132.375, -12.796875)" style="" class="label"><rect></rect><foreignObject height="25.59375" width="264.75"><div style="display: inline-block; white-space: nowrap;" xmlns="http://www.w3.org/1999/xhtml"><span class="nodeLabel">Customs Broker Initiates Amendment</span></div></foreignObject></g></g><g transform="translate(484.44921875, 774.375)" data-id="C2" data-node="true" id="flowchart-C2-97" class="node default default flowchart-label"><rect height="45.59375" width="183.546875" y="-22.796875" x="-91.7734375" ry="0" rx="0" style="" class="basic label-container"></rect><g transform="translate(-81.7734375, -12.796875)" style="" class="label"><rect></rect><foreignObject height="25.59375" width="163.546875"><div style="display: inline-block; white-space: nowrap;" xmlns="http://www.w3.org/1999/xhtml"><span class="nodeLabel">Select Fields to Amend</span></div></foreignObject></g></g><g transform="translate(484.44921875, 869.96875)" data-id="C3" data-node="true" id="flowchart-C3-98" class="node default default flowchart-label"><rect height="45.59375" width="144.296875" y="-22.796875" x="-72.1484375" ry="0" rx="0" style="" class="basic label-container"></rect><g transform="translate(-62.1484375, -12.796875)" style="" class="label"><rect></rect><foreignObject height="25.59375" width="124.296875"><div style="display: inline-block; white-space: nowrap;" xmlns="http://www.w3.org/1999/xhtml"><span class="nodeLabel">Enter New Values</span></div></foreignObject></g></g><g transform="translate(484.44921875, 965.5625)" data-id="C4" data-node="true" id="flowchart-C4-99" class="node default default flowchart-label"><rect height="45.59375" width="210.09375" y="-22.796875" x="-105.046875" ry="0" rx="0" style="" class="basic label-container"></rect><g transform="translate(-95.046875, -12.796875)" style="" class="label"><rect></rect><foreignObject height="25.59375" width="190.09375"><div style="display: inline-block; white-space: nowrap;" xmlns="http://www.w3.org/1999/xhtml"><span class="nodeLabel">Document Change Reasons</span></div></foreignObject></g></g><g transform="translate(484.44921875, 1061.15625)" data-id="C5" data-node="true" id="flowchart-C5-100" class="node default flowchart-label"><rect height="45.59375" width="141.734375" y="-22.796875" x="-70.8671875" ry="0" rx="0" style="" class="basic label-container"></rect><g transform="translate(-60.8671875, -12.796875)" style="" class="label"><rect></rect><foreignObject height="25.59375" width="121.734375"><div style="display: inline-block; white-space: nowrap;" xmlns="http://www.w3.org/1999/xhtml"><span class="nodeLabel">Validate Changes</span></div></foreignObject></g></g><g transform="translate(484.44921875, 1156.75)" data-id="C6" data-node="true" id="flowchart-C6-101" class="node default flowchart-label"><rect height="45.59375" width="221.09375" y="-22.796875" x="-110.546875" ry="0" rx="0" style="" class="basic label-container"></rect><g transform="translate(-100.546875, -12.796875)" style="" class="label"><rect></rect><foreignObject height="25.59375" width="201.09375"><div style="display: inline-block; white-space: nowrap;" xmlns="http://www.w3.org/1999/xhtml"><span class="nodeLabel">Submit Amendment Request</span></div></foreignObject></g></g><g transform="translate(1051.9140625, 168.390625)" data-id="E1" data-node="true" id="flowchart-E1-92" class="node default default flowchart-label"><rect height="45.59375" width="193.984375" y="-22.796875" x="-96.9921875" ry="0" rx="0" style="" class="basic label-container"></rect><g transform="translate(-86.9921875, -12.796875)" style="" class="label"><rect></rect><foreignObject height="25.59375" width="173.984375"><div style="display: inline-block; white-space: nowrap;" xmlns="http://www.w3.org/1999/xhtml"><span class="nodeLabel">Check Certificate Status</span></div></foreignObject></g></g><g transform="translate(1051.9140625, 263.984375)" data-id="E2" data-node="true" id="flowchart-E2-93" class="node default default flowchart-label"><rect height="45.59375" width="191.59375" y="-22.796875" x="-95.796875" ry="0" rx="0" style="" class="basic label-container"></rect><g transform="translate(-85.796875, -12.796875)" style="" class="label"><rect></rect><foreignObject height="25.59375" width="171.59375"><div style="display: inline-block; white-space: nowrap;" xmlns="http://www.w3.org/1999/xhtml"><span class="nodeLabel">Validate canAmend Flag</span></div></foreignObject></g></g><g transform="translate(1051.9140625, 359.578125)" data-id="E3" data-node="true" id="flowchart-E3-94" class="node default default flowchart-label"><rect height="45.59375" width="169.453125" y="-22.796875" x="-84.7265625" ry="0" rx="0" style="" class="basic label-container"></rect><g transform="translate(-74.7265625, -12.796875)" style="" class="label"><rect></rect><foreignObject height="25.59375" width="149.453125"><div style="display: inline-block; white-space: nowrap;" xmlns="http://www.w3.org/1999/xhtml"><span class="nodeLabel">Check Business Rules</span></div></foreignObject></g></g><g transform="translate(1051.9140625, 541.6796875)" data-id="E4" data-node="true" id="flowchart-E4-95" class="node default default flowchart-label"><polygon style="" transform="translate(-109.3046875,109.3046875)" class="label-container" points="109.3046875,0 218.609375,-109.3046875 109.3046875,-218.609375 0,-109.3046875"></polygon><g transform="translate(-76.5078125, -12.796875)" style="" class="label"><rect></rect><foreignObject height="25.59375" width="153.015625"><div style="display: inline-block; white-space: nowrap;" xmlns="http://www.w3.org/1999/xhtml"><span class="nodeLabel">Amendment Allowed?</span></div></foreignObject></g></g><g transform="translate(1114.06640625, 774.375)" data-id="ERR" data-node="true" id="flowchart-ERR-125" class="node default default flowchart-label"><rect height="45.59375" width="197.109375" y="-22.796875" x="-98.5546875" ry="0" rx="0" style="" class="basic label-container"></rect><g transform="translate(-88.5546875, -12.796875)" style="" class="label"><rect></rect><foreignObject height="25.59375" width="177.109375"><div style="display: inline-block; white-space: nowrap;" xmlns="http://www.w3.org/1999/xhtml"><span class="nodeLabel">Amendment Not Allowed</span></div></foreignObject></g></g><g transform="translate(804.8359375, 1327.9375)" data-id="API1" data-node="true" id="flowchart-API1-143" class="node default flowchart-label"><rect height="45.59375" width="132.953125" y="-22.796875" x="-66.4765625" ry="0" rx="0" style="" class="basic label-container"></rect><g transform="translate(-56.4765625, -12.796875)" style="" class="label"><rect></rect><foreignObject height="25.59375" width="112.953125"><div style="display: inline-block; white-space: nowrap;" xmlns="http://www.w3.org/1999/xhtml"><span class="nodeLabel">Amendment API</span></div></foreignObject></g></g><g transform="translate(793.25, 2031.734375)" data-id="API2" data-node="true" id="flowchart-API2-145" class="node default default flowchart-label"><rect height="45.59375" width="109.78125" y="-22.796875" x="-54.890625" ry="0" rx="0" style="" class="basic label-container"></rect><g transform="translate(-44.890625, -12.796875)" style="" class="label"><rect></rect><foreignObject height="25.59375" width="89.78125"><div style="display: inline-block; white-space: nowrap;" xmlns="http://www.w3.org/1999/xhtml"><span class="nodeLabel">Approval API</span></div></foreignObject></g></g><g transform="translate(547.71875, 2202.921875)" data-id="API3" data-node="true" id="flowchart-API3-147" class="node default default flowchart-label"><rect height="45.59375" width="114.890625" y="-22.796875" x="-57.4453125" ry="0" rx="0" style="" class="basic label-container"></rect><g transform="translate(-47.4453125, -12.796875)" style="" class="label"><rect></rect><foreignObject height="25.59375" width="94.890625"><div style="display: inline-block; white-space: nowrap;" xmlns="http://www.w3.org/1999/xhtml"><span class="nodeLabel">Rejection API</span></div></foreignObject></g></g></g></g></g></svg>