<svg aria-roledescription="flowchart-v2" role="graphics-document document" viewBox="-8 -8 1454.73046875 2967.671875" style="max-width: 1454.73046875px;" xmlns:xlink="http://www.w3.org/1999/xlink" xmlns="http://www.w3.org/2000/svg" width="100%" id="mermaid-1763036416438"><style>#mermaid-1763036416438{font-family:"trebuchet ms",verdana,arial,sans-serif;font-size:16px;fill:#333;}#mermaid-1763036416438 .error-icon{fill:#552222;}#mermaid-1763036416438 .error-text{fill:#552222;stroke:#552222;}#mermaid-1763036416438 .edge-thickness-normal{stroke-width:2px;}#mermaid-1763036416438 .edge-thickness-thick{stroke-width:3.5px;}#mermaid-1763036416438 .edge-pattern-solid{stroke-dasharray:0;}#mermaid-1763036416438 .edge-pattern-dashed{stroke-dasharray:3;}#mermaid-1763036416438 .edge-pattern-dotted{stroke-dasharray:2;}#mermaid-1763036416438 .marker{fill:#333333;stroke:#333333;}#mermaid-1763036416438 .marker.cross{stroke:#333333;}#mermaid-1763036416438 svg{font-family:"trebuchet ms",verdana,arial,sans-serif;font-size:16px;}#mermaid-1763036416438 .label{font-family:"trebuchet ms",verdana,arial,sans-serif;color:#333;}#mermaid-1763036416438 .cluster-label text{fill:#333;}#mermaid-1763036416438 .cluster-label span,#mermaid-1763036416438 p{color:#333;}#mermaid-1763036416438 .label text,#mermaid-1763036416438 span,#mermaid-1763036416438 p{fill:#333;color:#333;}#mermaid-1763036416438 .node rect,#mermaid-1763036416438 .node circle,#mermaid-1763036416438 .node ellipse,#mermaid-1763036416438 .node polygon,#mermaid-1763036416438 .node path{fill:#ECECFF;stroke:#9370DB;stroke-width:1px;}#mermaid-1763036416438 .flowchart-label text{text-anchor:middle;}#mermaid-1763036416438 .node .katex path{fill:#000;stroke:#000;stroke-width:1px;}#mermaid-1763036416438 .node .label{text-align:center;}#mermaid-1763036416438 .node.clickable{cursor:pointer;}#mermaid-1763036416438 .arrowheadPath{fill:#333333;}#mermaid-1763036416438 .edgePath .path{stroke:#333333;stroke-width:2.0px;}#mermaid-1763036416438 .flowchart-link{stroke:#333333;fill:none;}#mermaid-1763036416438 .edgeLabel{background-color:#e8e8e8;text-align:center;}#mermaid-1763036416438 .edgeLabel rect{opacity:0.5;background-color:#e8e8e8;fill:#e8e8e8;}#mermaid-1763036416438 .labelBkg{background-color:rgba(232, 232, 232, 0.5);}#mermaid-1763036416438 .cluster rect{fill:#ffffde;stroke:#aaaa33;stroke-width:1px;}#mermaid-1763036416438 .cluster text{fill:#333;}#mermaid-1763036416438 .cluster span,#mermaid-1763036416438 p{color:#333;}#mermaid-1763036416438 div.mermaidTooltip{position:absolute;text-align:center;max-width:200px;padding:2px;font-family:"trebuchet ms",verdana,arial,sans-serif;font-size:12px;background:hsl(80, 100%, 96.2745098039%);border:1px solid #aaaa33;border-radius:2px;pointer-events:none;z-index:100;}#mermaid-1763036416438 .flowchartTitleText{text-anchor:middle;font-size:18px;fill:#333;}#mermaid-1763036416438 :root{--mermaid-font-family:"trebuchet ms",verdana,arial,sans-serif;}</style><g><marker orient="auto" markerHeight="12" markerWidth="12" markerUnits="userSpaceOnUse" refY="5" refX="6" viewBox="0 0 10 10" class="marker flowchart" id="mermaid-1763036416438_flowchart-pointEnd"><path style="stroke-width: 1; stroke-dasharray: 1, 0;" class="arrowMarkerPath" d="M 0 0 L 10 5 L 0 10 z"></path></marker><marker orient="auto" markerHeight="12" markerWidth="12" markerUnits="userSpaceOnUse" refY="5" refX="4.5" viewBox="0 0 10 10" class="marker flowchart" id="mermaid-1763036416438_flowchart-pointStart"><path style="stroke-width: 1; stroke-dasharray: 1, 0;" class="arrowMarkerPath" d="M 0 5 L 10 10 L 10 0 z"></path></marker><marker orient="auto" markerHeight="11" markerWidth="11" markerUnits="userSpaceOnUse" refY="5" refX="11" viewBox="0 0 10 10" class="marker flowchart" id="mermaid-1763036416438_flowchart-circleEnd"><circle style="stroke-width: 1; stroke-dasharray: 1, 0;" class="arrowMarkerPath" r="5" cy="5" cx="5"></circle></marker><marker orient="auto" markerHeight="11" markerWidth="11" markerUnits="userSpaceOnUse" refY="5" refX="-1" viewBox="0 0 10 10" class="marker flowchart" id="mermaid-1763036416438_flowchart-circleStart"><circle style="stroke-width: 1; stroke-dasharray: 1, 0;" class="arrowMarkerPath" r="5" cy="5" cx="5"></circle></marker><marker orient="auto" markerHeight="11" markerWidth="11" markerUnits="userSpaceOnUse" refY="5.2" refX="12" viewBox="0 0 11 11" class="marker cross flowchart" id="mermaid-1763036416438_flowchart-crossEnd"><path style="stroke-width: 2; stroke-dasharray: 1, 0;" class="arrowMarkerPath" d="M 1,1 l 9,9 M 10,1 l -9,9"></path></marker><marker orient="auto" markerHeight="11" markerWidth="11" markerUnits="userSpaceOnUse" refY="5.2" refX="-1" viewBox="0 0 11 11" class="marker cross flowchart" id="mermaid-1763036416438_flowchart-crossStart"><path style="stroke-width: 2; stroke-dasharray: 1, 0;" class="arrowMarkerPath" d="M 1,1 l 9,9 M 10,1 l -9,9"></path></marker><g class="root"><g class="clusters"><g id="Notification" class="cluster default flowchart-label"><rect height="382.375" width="859.71484375" y="2569.296875" x="54.140625" ry="0" rx="0" style=""></rect><g transform="translate(430.505859375, 2569.296875)" class="cluster-label"><foreignObject height="25.59375" width="106.984375"><div style="display: inline-block; white-space: nowrap;" xmlns="http://www.w3.org/1999/xhtml"><span class="nodeLabel">Status Updates</span></div></foreignObject></g></g><g id="Financial" class="cluster default flowchart-label"><rect height="382.375" width="306.625" y="2136.921875" x="0" ry="0" rx="0" style=""></rect><g transform="translate(81.7109375, 2136.921875)" class="cluster-label"><foreignObject height="25.59375" width="143.203125"><div style="display: inline-block; white-space: nowrap;" xmlns="http://www.w3.org/1999/xhtml"><span class="nodeLabel">Financial Processing</span></div></foreignObject></g></g><g id="Review" class="cluster default flowchart-label"><rect height="777.9375" width="877.50390625" y="1283.390625" x="45.24609375" ry="0" rx="0" style=""></rect><g transform="translate(400.404296875, 1283.390625)" class="cluster-label"><foreignObject height="25.59375" width="167.1875"><div style="display: inline-block; white-space: nowrap;" xmlns="http://www.w3.org/1999/xhtml"><span class="nodeLabel">ARCCLA Review Process</span></div></foreignObject></g></g><g id="Creation" class="cluster default flowchart-label"><rect height="1207.796875" width="703.921875" y="0" x="405.734375" ry="0" rx="0" style=""></rect><g transform="translate(649.2734375, 0)" class="cluster-label"><foreignObject height="25.59375" width="216.84375"><div style="display: inline-block; white-space: nowrap;" xmlns="http://www.w3.org/1999/xhtml"><span class="nodeLabel">Cancellation Request Creation</span></div></foreignObject></g></g><g id="Eligibility" class="cluster default flowchart-label"><rect height="654.234375" width="291.859375" y="120.59375" x="1129.65625" ry="0" rx="0" style=""></rect><g transform="translate(1170.8046875, 120.59375)" class="cluster-label"><foreignObject height="25.59375" width="209.5625"><div style="display: inline-block; white-space: nowrap;" xmlns="http://www.w3.org/1999/xhtml"><span class="nodeLabel">Cancellation Eligibility Check</span></div></foreignObject></g></g></g><g class="edgePaths"><path marker-end="url(#mermaid-1763036416438_flowchart-pointEnd)" style="fill:none;" class="edge-thickness-normal edge-pattern-solid flowchart-link LS-C1 LE-E1" id="L-C1-E1-0" d="M876.234,70.594L876.234,74.76C876.234,78.927,876.234,87.26,876.234,95.594C876.234,103.927,876.234,112.26,925.751,122.353C975.267,132.447,1074.299,144.299,1123.815,150.226L1173.331,156.152"></path><path marker-end="url(#mermaid-1763036416438_flowchart-pointEnd)" style="fill:none;" class="edge-thickness-normal edge-pattern-solid flowchart-link LS-E1 LE-E2" id="L-E1-E2-0" d="M1275.586,191.188L1275.586,195.354C1275.586,199.521,1275.586,207.854,1275.586,215.304C1275.586,222.754,1275.586,229.321,1275.586,232.604L1275.586,235.888"></path><path marker-end="url(#mermaid-1763036416438_flowchart-pointEnd)" style="fill:none;" class="edge-thickness-normal edge-pattern-solid flowchart-link LS-E2 LE-E3" id="L-E2-E3-0" d="M1275.586,286.781L1275.586,290.948C1275.586,295.115,1275.586,303.448,1275.586,310.898C1275.586,318.348,1275.586,324.915,1275.586,328.198L1275.586,331.481"></path><path marker-end="url(#mermaid-1763036416438_flowchart-pointEnd)" style="fill:none;" class="edge-thickness-normal edge-pattern-solid flowchart-link LS-E3 LE-E4" id="L-E3-E4-0" d="M1275.586,382.375L1275.586,386.542C1275.586,390.708,1275.586,399.042,1275.586,406.492C1275.586,413.942,1275.586,420.508,1275.586,423.792L1275.586,427.075"></path><path marker-end="url(#mermaid-1763036416438_flowchart-pointEnd)" style="fill:none;" class="edge-thickness-normal edge-pattern-solid flowchart-link LS-E4 LE-E5" id="L-E4-E5-0" d="M1275.586,477.969L1275.586,482.135C1275.586,486.302,1275.586,494.635,1275.652,502.169C1275.718,509.702,1275.85,516.436,1275.916,519.803L1275.982,523.17"></path><path marker-end="url(#mermaid-1763036416438_flowchart-pointEnd)" style="fill:none;" class="edge-thickness-normal edge-pattern-solid flowchart-link LS-E5 LE-C2" id="L-E5-C2-0" d="M1244.982,719.224L1241.255,728.491C1237.528,737.759,1230.075,756.293,1129.104,771.86C1028.133,787.427,833.645,800.026,736.4,811.742C639.156,823.457,639.156,834.29,639.156,839.706L639.156,845.122"></path><path marker-end="url(#mermaid-1763036416438_flowchart-pointEnd)" style="fill:none;" class="edge-thickness-normal edge-pattern-solid flowchart-link LS-C2 LE-C3" id="L-C2-C3-0" d="M639.156,896.016L639.156,900.182C639.156,904.349,639.156,912.682,639.156,920.132C639.156,927.582,639.156,934.149,639.156,937.432L639.156,940.716"></path><path marker-end="url(#mermaid-1763036416438_flowchart-pointEnd)" style="fill:none;" class="edge-thickness-normal edge-pattern-solid flowchart-link LS-C3 LE-C4" id="L-C3-C4-0" d="M639.156,991.609L639.156,995.776C639.156,999.943,639.156,1008.276,639.156,1015.726C639.156,1023.176,639.156,1029.743,639.156,1033.026L639.156,1036.309"></path><path marker-end="url(#mermaid-1763036416438_flowchart-pointEnd)" style="fill:none;" class="edge-thickness-normal edge-pattern-solid flowchart-link LS-C4 LE-C5" id="L-C4-C5-0" d="M639.156,1087.203L639.156,1091.37C639.156,1095.536,639.156,1103.87,639.156,1111.32C639.156,1118.77,639.156,1125.336,639.156,1128.62L639.156,1131.903"></path><path marker-end="url(#mermaid-1763036416438_flowchart-pointEnd)" style="fill:none;" class="edge-thickness-normal edge-pattern-solid flowchart-link LS-E5 LE-ERR" id="L-E5-ERR-0" d="M1311.203,715.211L1315.761,725.147C1320.319,735.083,1329.435,754.956,1333.993,771.191C1338.551,787.427,1338.551,800.026,1338.551,811.742C1338.551,823.457,1338.551,834.29,1338.551,839.706L1338.551,845.122"></path><path marker-end="url(#mermaid-1763036416438_flowchart-pointEnd)" style="fill:none;" class="edge-thickness-normal edge-pattern-solid flowchart-link LS-C5 LE-R1" id="L-C5-R1-0" d="M572.565,1182.797L560.394,1186.964C548.223,1191.13,523.881,1199.464,511.71,1209.93C499.539,1220.396,499.539,1232.995,499.539,1245.594C499.539,1258.193,499.539,1270.792,499.539,1280.374C499.539,1289.957,499.539,1296.524,499.539,1299.807L499.539,1303.091"></path><path marker-end="url(#mermaid-1763036416438_flowchart-pointEnd)" style="fill:none;" class="edge-thickness-normal edge-pattern-solid flowchart-link LS-R1 LE-R2" id="L-R1-R2-0" d="M499.539,1353.984L499.539,1358.151C499.539,1362.318,499.539,1370.651,499.539,1378.101C499.539,1385.551,499.539,1392.118,499.539,1395.401L499.539,1398.684"></path><path marker-end="url(#mermaid-1763036416438_flowchart-pointEnd)" style="fill:none;" class="edge-thickness-normal edge-pattern-solid flowchart-link LS-R2 LE-R3" id="L-R2-R3-0" d="M499.539,1449.578L499.539,1453.745C499.539,1457.911,499.539,1466.245,499.539,1473.695C499.539,1481.145,499.539,1487.711,499.539,1490.995L499.539,1494.278"></path><path marker-end="url(#mermaid-1763036416438_flowchart-pointEnd)" style="fill:none;" class="edge-thickness-normal edge-pattern-solid flowchart-link LS-R3 LE-R4" id="L-R3-R4-0" d="M499.539,1545.172L499.539,1549.339C499.539,1553.505,499.539,1561.839,499.539,1569.289C499.539,1576.739,499.539,1583.305,499.539,1586.589L499.539,1589.872"></path><path marker-end="url(#mermaid-1763036416438_flowchart-pointEnd)" style="fill:none;" class="edge-thickness-normal edge-pattern-solid flowchart-link LS-R4 LE-R5" id="L-R4-R5-0" d="M499.539,1640.766L499.539,1644.932C499.539,1649.099,499.539,1657.432,499.605,1664.966C499.671,1672.499,499.803,1679.233,499.869,1682.6L499.935,1685.967"></path><path marker-end="url(#mermaid-1763036416438_flowchart-pointEnd)" style="fill:none;" class="edge-thickness-normal edge-pattern-solid flowchart-link LS-R5 LE-R6" id="L-R5-R6-0" d="M432.769,1848.37L406.46,1865.798C380.15,1883.226,327.532,1918.082,301.223,1940.926C274.914,1963.77,274.914,1974.602,274.914,1980.018L274.914,1985.434"></path><path marker-end="url(#mermaid-1763036416438_flowchart-pointEnd)" style="fill:none;" class="edge-thickness-normal edge-pattern-solid flowchart-link LS-R6 LE-F1" id="L-R6-F1-0" d="M216.916,2036.328L206.315,2040.495C195.715,2044.661,174.514,2052.995,163.913,2063.461C153.313,2073.927,153.313,2086.526,153.313,2099.125C153.313,2111.724,153.313,2124.323,153.313,2133.906C153.313,2143.489,153.313,2150.055,153.313,2153.339L153.313,2156.622"></path><path marker-end="url(#mermaid-1763036416438_flowchart-pointEnd)" style="fill:none;" class="edge-thickness-normal edge-pattern-solid flowchart-link LS-F1 LE-F2" id="L-F1-F2-0" d="M153.313,2207.516L153.313,2211.682C153.313,2215.849,153.313,2224.182,153.313,2231.632C153.313,2239.082,153.313,2245.649,153.313,2248.932L153.313,2252.216"></path><path marker-end="url(#mermaid-1763036416438_flowchart-pointEnd)" style="fill:none;" class="edge-thickness-normal edge-pattern-solid flowchart-link LS-F2 LE-F3" id="L-F2-F3-0" d="M153.313,2303.109L153.313,2307.276C153.313,2311.443,153.313,2319.776,153.313,2327.226C153.313,2334.676,153.313,2341.243,153.313,2344.526L153.313,2347.809"></path><path marker-end="url(#mermaid-1763036416438_flowchart-pointEnd)" style="fill:none;" class="edge-thickness-normal edge-pattern-solid flowchart-link LS-F3 LE-F4" id="L-F3-F4-0" d="M153.313,2398.703L153.313,2402.87C153.313,2407.036,153.313,2415.37,153.313,2422.82C153.313,2430.27,153.313,2436.836,153.313,2440.12L153.313,2443.403"></path><path marker-end="url(#mermaid-1763036416438_flowchart-pointEnd)" style="fill:none;" class="edge-thickness-normal edge-pattern-solid flowchart-link LS-F4 LE-N1" id="L-F4-N1-0" d="M153.313,2494.297L153.313,2498.464C153.313,2502.63,153.313,2510.964,153.313,2519.297C153.313,2527.63,153.313,2535.964,153.313,2544.297C153.313,2552.63,153.313,2560.964,195.184,2570.911C237.055,2580.858,320.797,2592.418,362.668,2598.199L404.539,2603.979"></path><path marker-end="url(#mermaid-1763036416438_flowchart-pointEnd)" style="fill:none;" class="edge-thickness-normal edge-pattern-solid flowchart-link LS-R5 LE-R8" id="L-R5-R8-0" d="M570.69,1844.99L601.35,1862.981C632.011,1880.972,693.332,1916.955,723.992,1940.362C754.652,1963.77,754.652,1974.602,754.652,1980.018L754.652,1985.434"></path><path marker-end="url(#mermaid-1763036416438_flowchart-pointEnd)" style="fill:none;" class="edge-thickness-normal edge-pattern-solid flowchart-link LS-R8 LE-N1" id="L-R8-N1-0" d="M788.054,2036.328L794.159,2040.495C800.264,2044.661,812.474,2052.995,818.579,2063.461C824.684,2073.927,824.684,2086.526,824.684,2099.125C824.684,2111.724,824.684,2124.323,824.684,2138.589C824.684,2152.854,824.684,2168.786,824.684,2184.719C824.684,2200.651,824.684,2216.583,824.684,2232.516C824.684,2248.448,824.684,2264.38,824.684,2280.313C824.684,2296.245,824.684,2312.177,824.684,2328.109C824.684,2344.042,824.684,2359.974,824.684,2375.906C824.684,2391.839,824.684,2407.771,824.684,2423.703C824.684,2439.635,824.684,2455.568,824.684,2471.5C824.684,2487.432,824.684,2503.365,824.684,2515.497C824.684,2527.63,824.684,2535.964,824.684,2544.297C824.684,2552.63,824.684,2560.964,786.325,2570.769C747.967,2580.574,671.25,2591.852,632.891,2597.491L594.533,2603.13"></path><path marker-end="url(#mermaid-1763036416438_flowchart-pointEnd)" style="fill:none;" class="edge-thickness-normal edge-pattern-solid flowchart-link LS-N1 LE-N2" id="L-N1-N2-0" d="M499.539,2639.891L499.539,2644.057C499.539,2648.224,499.539,2656.557,499.539,2664.007C499.539,2671.457,499.539,2678.024,499.539,2681.307L499.539,2684.591"></path><path marker-end="url(#mermaid-1763036416438_flowchart-pointEnd)" style="fill:none;" class="edge-thickness-normal edge-pattern-solid flowchart-link LS-N2 LE-N3" id="L-N2-N3-0" d="M499.539,2735.484L499.539,2739.651C499.539,2743.818,499.539,2752.151,499.539,2759.601C499.539,2767.051,499.539,2773.618,499.539,2776.901L499.539,2780.184"></path><path marker-end="url(#mermaid-1763036416438_flowchart-pointEnd)" style="fill:none;" class="edge-thickness-normal edge-pattern-solid flowchart-link LS-N3 LE-N4" id="L-N3-N4-0" d="M499.539,2831.078L499.539,2835.245C499.539,2839.411,499.539,2847.745,499.539,2855.195C499.539,2862.645,499.539,2869.211,499.539,2872.495L499.539,2875.778"></path><path marker-end="url(#mermaid-1763036416438_flowchart-pointEnd)" style="fill:none;stroke-width:2px;stroke-dasharray:3;" class="edge-thickness-normal edge-pattern-dotted flowchart-link LS-C5 LE-API1" id="L-C5-API1-0" d="M751.766,1173.919L797.447,1179.565C843.128,1185.212,934.49,1196.504,980.171,1208.45C1025.852,1220.396,1025.852,1232.995,1025.852,1245.594C1025.852,1258.193,1025.852,1270.792,1025.852,1280.374C1025.852,1289.957,1025.852,1296.524,1025.852,1299.807L1025.852,1303.091"></path><path marker-end="url(#mermaid-1763036416438_flowchart-pointEnd)" style="fill:none;stroke-width:2px;stroke-dasharray:3;" class="edge-thickness-normal edge-pattern-dotted flowchart-link LS-R6 LE-API2" id="L-R6-API2-0" d="M332.912,2036.328L343.513,2040.495C354.113,2044.661,375.315,2052.995,385.915,2063.461C396.516,2073.927,396.516,2086.526,396.516,2099.125C396.516,2111.724,396.516,2124.323,396.516,2133.906C396.516,2143.489,396.516,2150.055,396.516,2153.339L396.516,2156.622"></path><path marker-end="url(#mermaid-1763036416438_flowchart-pointEnd)" style="fill:none;stroke-width:2px;stroke-dasharray:3;" class="edge-thickness-normal edge-pattern-dotted flowchart-link LS-R8 LE-API3" id="L-R8-API3-0" d="M711.196,2036.328L703.253,2040.495C695.31,2044.661,679.425,2052.995,671.482,2063.461C663.539,2073.927,663.539,2086.526,663.539,2099.125C663.539,2111.724,663.539,2124.323,663.539,2133.906C663.539,2143.489,663.539,2150.055,663.539,2153.339L663.539,2156.622"></path></g><g class="edgeLabels"><g class="edgeLabel"><g transform="translate(0, 0)" class="label"><foreignObject height="0" width="0"><div style="display: inline-block; white-space: nowrap;" xmlns="http://www.w3.org/1999/xhtml"><span class="edgeLabel"></span></div></foreignObject></g></g><g class="edgeLabel"><g transform="translate(0, 0)" class="label"><foreignObject height="0" width="0"><div style="display: inline-block; white-space: nowrap;" xmlns="http://www.w3.org/1999/xhtml"><span class="edgeLabel"></span></div></foreignObject></g></g><g class="edgeLabel"><g transform="translate(0, 0)" class="label"><foreignObject height="0" width="0"><div style="display: inline-block; white-space: nowrap;" xmlns="http://www.w3.org/1999/xhtml"><span class="edgeLabel"></span></div></foreignObject></g></g><g class="edgeLabel"><g transform="translate(0, 0)" class="label"><foreignObject height="0" width="0"><div style="display: inline-block; white-space: nowrap;" xmlns="http://www.w3.org/1999/xhtml"><span class="edgeLabel"></span></div></foreignObject></g></g><g class="edgeLabel"><g transform="translate(0, 0)" class="label"><foreignObject height="0" width="0"><div style="display: inline-block; white-space: nowrap;" xmlns="http://www.w3.org/1999/xhtml"><span class="edgeLabel"></span></div></foreignObject></g></g><g transform="translate(639.15625, 812.625)" class="edgeLabel"><g transform="translate(-11.328125, -12.796875)" class="label"><foreignObject height="25.59375" width="22.65625"><div style="display: inline-block; white-space: nowrap;" xmlns="http://www.w3.org/1999/xhtml"><span class="edgeLabel">Yes</span></div></foreignObject></g></g><g class="edgeLabel"><g transform="translate(0, 0)" class="label"><foreignObject height="0" width="0"><div style="display: inline-block; white-space: nowrap;" xmlns="http://www.w3.org/1999/xhtml"><span class="edgeLabel"></span></div></foreignObject></g></g><g class="edgeLabel"><g transform="translate(0, 0)" class="label"><foreignObject height="0" width="0"><div style="display: inline-block; white-space: nowrap;" xmlns="http://www.w3.org/1999/xhtml"><span class="edgeLabel"></span></div></foreignObject></g></g><g class="edgeLabel"><g transform="translate(0, 0)" class="label"><foreignObject height="0" width="0"><div style="display: inline-block; white-space: nowrap;" xmlns="http://www.w3.org/1999/xhtml"><span class="edgeLabel"></span></div></foreignObject></g></g><g transform="translate(1338.55078125, 812.625)" class="edgeLabel"><g transform="translate(-9.3984375, -12.796875)" class="label"><foreignObject height="25.59375" width="18.796875"><div style="display: inline-block; white-space: nowrap;" xmlns="http://www.w3.org/1999/xhtml"><span class="edgeLabel">No</span></div></foreignObject></g></g><g class="edgeLabel"><g transform="translate(0, 0)" class="label"><foreignObject height="0" width="0"><div style="display: inline-block; white-space: nowrap;" xmlns="http://www.w3.org/1999/xhtml"><span class="edgeLabel"></span></div></foreignObject></g></g><g class="edgeLabel"><g transform="translate(0, 0)" class="label"><foreignObject height="0" width="0"><div style="display: inline-block; white-space: nowrap;" xmlns="http://www.w3.org/1999/xhtml"><span class="edgeLabel"></span></div></foreignObject></g></g><g class="edgeLabel"><g transform="translate(0, 0)" class="label"><foreignObject height="0" width="0"><div style="display: inline-block; white-space: nowrap;" xmlns="http://www.w3.org/1999/xhtml"><span class="edgeLabel"></span></div></foreignObject></g></g><g class="edgeLabel"><g transform="translate(0, 0)" class="label"><foreignObject height="0" width="0"><div style="display: inline-block; white-space: nowrap;" xmlns="http://www.w3.org/1999/xhtml"><span class="edgeLabel"></span></div></foreignObject></g></g><g class="edgeLabel"><g transform="translate(0, 0)" class="label"><foreignObject height="0" width="0"><div style="display: inline-block; white-space: nowrap;" xmlns="http://www.w3.org/1999/xhtml"><span class="edgeLabel"></span></div></foreignObject></g></g><g transform="translate(274.9140625, 1952.9375)" class="edgeLabel"><g transform="translate(-29.3203125, -12.796875)" class="label"><foreignObject height="25.59375" width="58.640625"><div style="display: inline-block; white-space: nowrap;" xmlns="http://www.w3.org/1999/xhtml"><span class="edgeLabel">Approve</span></div></foreignObject></g></g><g class="edgeLabel"><g transform="translate(0, 0)" class="label"><foreignObject height="0" width="0"><div style="display: inline-block; white-space: nowrap;" xmlns="http://www.w3.org/1999/xhtml"><span class="edgeLabel"></span></div></foreignObject></g></g><g class="edgeLabel"><g transform="translate(0, 0)" class="label"><foreignObject height="0" width="0"><div style="display: inline-block; white-space: nowrap;" xmlns="http://www.w3.org/1999/xhtml"><span class="edgeLabel"></span></div></foreignObject></g></g><g class="edgeLabel"><g transform="translate(0, 0)" class="label"><foreignObject height="0" width="0"><div style="display: inline-block; white-space: nowrap;" xmlns="http://www.w3.org/1999/xhtml"><span class="edgeLabel"></span></div></foreignObject></g></g><g class="edgeLabel"><g transform="translate(0, 0)" class="label"><foreignObject height="0" width="0"><div style="display: inline-block; white-space: nowrap;" xmlns="http://www.w3.org/1999/xhtml"><span class="edgeLabel"></span></div></foreignObject></g></g><g class="edgeLabel"><g transform="translate(0, 0)" class="label"><foreignObject height="0" width="0"><div style="display: inline-block; white-space: nowrap;" xmlns="http://www.w3.org/1999/xhtml"><span class="edgeLabel"></span></div></foreignObject></g></g><g transform="translate(754.65234375, 1952.9375)" class="edgeLabel"><g transform="translate(-23.125, -12.796875)" class="label"><foreignObject height="25.59375" width="46.25"><div style="display: inline-block; white-space: nowrap;" xmlns="http://www.w3.org/1999/xhtml"><span class="edgeLabel">Reject</span></div></foreignObject></g></g><g class="edgeLabel"><g transform="translate(0, 0)" class="label"><foreignObject height="0" width="0"><div style="display: inline-block; white-space: nowrap;" xmlns="http://www.w3.org/1999/xhtml"><span class="edgeLabel"></span></div></foreignObject></g></g><g class="edgeLabel"><g transform="translate(0, 0)" class="label"><foreignObject height="0" width="0"><div style="display: inline-block; white-space: nowrap;" xmlns="http://www.w3.org/1999/xhtml"><span class="edgeLabel"></span></div></foreignObject></g></g><g class="edgeLabel"><g transform="translate(0, 0)" class="label"><foreignObject height="0" width="0"><div style="display: inline-block; white-space: nowrap;" xmlns="http://www.w3.org/1999/xhtml"><span class="edgeLabel"></span></div></foreignObject></g></g><g class="edgeLabel"><g transform="translate(0, 0)" class="label"><foreignObject height="0" width="0"><div style="display: inline-block; white-space: nowrap;" xmlns="http://www.w3.org/1999/xhtml"><span class="edgeLabel"></span></div></foreignObject></g></g><g transform="translate(1025.8515625, 1245.59375)" class="edgeLabel"><g transform="translate(-119.984375, -12.796875)" class="label"><foreignObject height="25.59375" width="239.96875"><div style="display: inline-block; white-space: nowrap;" xmlns="http://www.w3.org/1999/xhtml"><span class="edgeLabel">POST /api/CTNs/id/cancellations</span></div></foreignObject></g></g><g transform="translate(396.515625, 2099.125)" class="edgeLabel"><g transform="translate(-126.9609375, -12.796875)" class="label"><foreignObject height="25.59375" width="253.921875"><div style="display: inline-block; white-space: nowrap;" xmlns="http://www.w3.org/1999/xhtml"><span class="edgeLabel">PUT /api/cancellations/id/approve</span></div></foreignObject></g></g><g transform="translate(663.5390625, 2099.125)" class="edgeLabel"><g transform="translate(-120.0625, -12.796875)" class="label"><foreignObject height="25.59375" width="240.125"><div style="display: inline-block; white-space: nowrap;" xmlns="http://www.w3.org/1999/xhtml"><span class="edgeLabel">PUT /api/cancellations/id/reject</span></div></foreignObject></g></g></g><g class="nodes"><g transform="translate(499.5390625, 2617.09375)" data-id="N1" data-node="true" id="flowchart-N1-174" class="node default default flowchart-label"><rect height="45.59375" width="179.5" y="-22.796875" x="-89.75" ry="0" rx="0" style="" class="basic label-container"></rect><g transform="translate(-79.75, -12.796875)" style="" class="label"><rect></rect><foreignObject height="25.59375" width="159.5"><div style="display: inline-block; white-space: nowrap;" xmlns="http://www.w3.org/1999/xhtml"><span class="nodeLabel">Notify Customs Broker</span></div></foreignObject></g></g><g transform="translate(499.5390625, 2712.6875)" data-id="N2" data-node="true" id="flowchart-N2-175" class="node default default flowchart-label"><rect height="45.59375" width="202.625" y="-22.796875" x="-101.3125" ry="0" rx="0" style="" class="basic label-container"></rect><g transform="translate(-91.3125, -12.796875)" style="" class="label"><rect></rect><foreignObject height="25.59375" width="182.625"><div style="display: inline-block; white-space: nowrap;" xmlns="http://www.w3.org/1999/xhtml"><span class="nodeLabel">Update Certificate Status</span></div></foreignObject></g></g><g transform="translate(499.5390625, 2808.28125)" data-id="N3" data-node="true" id="flowchart-N3-176" class="node default default flowchart-label"><rect height="45.59375" width="246.6875" y="-22.796875" x="-123.34375" ry="0" rx="0" style="" class="basic label-container"></rect><g transform="translate(-113.34375, -12.796875)" style="" class="label"><rect></rect><foreignObject height="25.59375" width="226.6875"><div style="display: inline-block; white-space: nowrap;" xmlns="http://www.w3.org/1999/xhtml"><span class="nodeLabel">Send Cancellation Confirmation</span></div></foreignObject></g></g><g transform="translate(499.5390625, 2903.875)" data-id="N4" data-node="true" id="flowchart-N4-177" class="node default default flowchart-label"><rect height="45.59375" width="149.59375" y="-22.796875" x="-74.796875" ry="0" rx="0" style="" class="basic label-container"></rect><g transform="translate(-64.796875, -12.796875)" style="" class="label"><rect></rect><foreignObject height="25.59375" width="129.59375"><div style="display: inline-block; white-space: nowrap;" xmlns="http://www.w3.org/1999/xhtml"><span class="nodeLabel">Update Audit Trail</span></div></foreignObject></g></g><g transform="translate(153.3125, 2184.71875)" data-id="F1" data-node="true" id="flowchart-F1-170" class="node default default flowchart-label"><rect height="45.59375" width="201.15625" y="-22.796875" x="-100.578125" ry="0" rx="0" style="" class="basic label-container"></rect><g transform="translate(-90.578125, -12.796875)" style="" class="label"><rect></rect><foreignObject height="25.59375" width="181.15625"><div style="display: inline-block; white-space: nowrap;" xmlns="http://www.w3.org/1999/xhtml"><span class="nodeLabel">Calculate Refund Amount</span></div></foreignObject></g></g><g transform="translate(153.3125, 2280.3125)" data-id="F2" data-node="true" id="flowchart-F2-171" class="node default default flowchart-label"><rect height="45.59375" width="193.484375" y="-22.796875" x="-96.7421875" ry="0" rx="0" style="" class="basic label-container"></rect><g transform="translate(-86.7421875, -12.796875)" style="" class="label"><rect></rect><foreignObject height="25.59375" width="173.484375"><div style="display: inline-block; white-space: nowrap;" xmlns="http://www.w3.org/1999/xhtml"><span class="nodeLabel">Process Refund Payment</span></div></foreignObject></g></g><g transform="translate(153.3125, 2375.90625)" data-id="F3" data-node="true" id="flowchart-F3-172" class="node default default flowchart-label"><rect height="45.59375" width="198.390625" y="-22.796875" x="-99.1953125" ry="0" rx="0" style="" class="basic label-container"></rect><g transform="translate(-89.1953125, -12.796875)" style="" class="label"><rect></rect><foreignObject height="25.59375" width="178.390625"><div style="display: inline-block; white-space: nowrap;" xmlns="http://www.w3.org/1999/xhtml"><span class="nodeLabel">Update Payment Records</span></div></foreignObject></g></g><g transform="translate(153.3125, 2471.5)" data-id="F4" data-node="true" id="flowchart-F4-173" class="node default default flowchart-label"><rect height="45.59375" width="236.625" y="-22.796875" x="-118.3125" ry="0" rx="0" style="" class="basic label-container"></rect><g transform="translate(-108.3125, -12.796875)" style="" class="label"><rect></rect><foreignObject height="25.59375" width="216.625"><div style="display: inline-block; white-space: nowrap;" xmlns="http://www.w3.org/1999/xhtml"><span class="nodeLabel">Generate Cancellation Invoice</span></div></foreignObject></g></g><g transform="translate(499.5390625, 1331.1875)" data-id="R1" data-node="true" id="flowchart-R1-162" class="node default default flowchart-label"><rect height="45.59375" width="282.265625" y="-22.796875" x="-141.1328125" ry="0" rx="0" style="" class="basic label-container"></rect><g transform="translate(-131.1328125, -12.796875)" style="" class="label"><rect></rect><foreignObject height="25.59375" width="262.265625"><div style="display: inline-block; white-space: nowrap;" xmlns="http://www.w3.org/1999/xhtml"><span class="nodeLabel">ARCCLA Broker Receives Notification</span></div></foreignObject></g></g><g transform="translate(499.5390625, 1426.78125)" data-id="R2" data-node="true" id="flowchart-R2-163" class="node default default flowchart-label"><rect height="45.59375" width="226.109375" y="-22.796875" x="-113.0546875" ry="0" rx="0" style="" class="basic label-container"></rect><g transform="translate(-103.0546875, -12.796875)" style="" class="label"><rect></rect><foreignObject height="25.59375" width="206.109375"><div style="display: inline-block; white-space: nowrap;" xmlns="http://www.w3.org/1999/xhtml"><span class="nodeLabel">Review Cancellation Request</span></div></foreignObject></g></g><g transform="translate(499.5390625, 1522.375)" data-id="R3" data-node="true" id="flowchart-R3-164" class="node default flowchart-label"><rect height="45.59375" width="226.90625" y="-22.796875" x="-113.453125" ry="0" rx="0" style="" class="basic label-container"></rect><g transform="translate(-103.453125, -12.796875)" style="" class="label"><rect></rect><foreignObject height="25.59375" width="206.90625"><div style="display: inline-block; white-space: nowrap;" xmlns="http://www.w3.org/1999/xhtml"><span class="nodeLabel">Validate Cancellation Reason</span></div></foreignObject></g></g><g transform="translate(499.5390625, 1617.96875)" data-id="R4" data-node="true" id="flowchart-R4-165" class="node default default flowchart-label"><rect height="45.59375" width="201.15625" y="-22.796875" x="-100.578125" ry="0" rx="0" style="" class="basic label-container"></rect><g transform="translate(-90.578125, -12.796875)" style="" class="label"><rect></rect><foreignObject height="25.59375" width="181.15625"><div style="display: inline-block; white-space: nowrap;" xmlns="http://www.w3.org/1999/xhtml"><span class="nodeLabel">Calculate Refund Amount</span></div></foreignObject></g></g><g transform="translate(499.5390625, 1802.953125)" data-id="R5" data-node="true" id="flowchart-R5-166" class="node default default flowchart-label"><polygon style="" transform="translate(-112.1875,112.1875)" class="label-container" points="112.1875,0 224.375,-112.1875 112.1875,-224.375 0,-112.1875"></polygon><g transform="translate(-79.390625, -12.796875)" style="" class="label"><rect></rect><foreignObject height="25.59375" width="158.78125"><div style="display: inline-block; white-space: nowrap;" xmlns="http://www.w3.org/1999/xhtml"><span class="nodeLabel">Approve Cancellation?</span></div></foreignObject></g></g><g transform="translate(274.9140625, 2013.53125)" data-id="R6" data-node="true" id="flowchart-R6-167" class="node default default flowchart-label"><rect height="45.59375" width="166.84375" y="-22.796875" x="-83.421875" ry="0" rx="0" style="" class="basic label-container"></rect><g transform="translate(-73.421875, -12.796875)" style="" class="label"><rect></rect><foreignObject height="25.59375" width="146.84375"><div style="display: inline-block; white-space: nowrap;" xmlns="http://www.w3.org/1999/xhtml"><span class="nodeLabel">Process Cancellation</span></div></foreignObject></g></g><g transform="translate(530.85546875, 2013.53125)" data-id="R7" data-node="true" id="flowchart-R7-168" class="node default default flowchart-label"><rect height="45.59375" width="184.0625" y="-22.796875" x="-92.03125" ry="0" rx="0" style="" class="basic label-container"></rect><g transform="translate(-82.03125, -12.796875)" style="" class="label"><rect></rect><foreignObject height="25.59375" width="164.0625"><div style="display: inline-block; white-space: nowrap;" xmlns="http://www.w3.org/1999/xhtml"><span class="nodeLabel">Initiate Refund Process</span></div></foreignObject></g></g><g transform="translate(754.65234375, 2013.53125)" data-id="R8" data-node="true" id="flowchart-R8-169" class="node default default flowchart-label"><rect height="45.59375" width="163.53125" y="-22.796875" x="-81.765625" ry="0" rx="0" style="" class="basic label-container"></rect><g transform="translate(-71.765625, -12.796875)" style="" class="label"><rect></rect><foreignObject height="25.59375" width="143.53125"><div style="display: inline-block; white-space: nowrap;" xmlns="http://www.w3.org/1999/xhtml"><span class="nodeLabel">Reject with Reasons</span></div></foreignObject></g></g><g transform="translate(876.234375, 47.796875)" data-id="C1" data-node="true" id="flowchart-C1-157" class="node default default flowchart-label"><rect height="45.59375" width="288.875" y="-22.796875" x="-144.4375" ry="0" rx="0" style="" class="basic label-container"></rect><g transform="translate(-134.4375, -12.796875)" style="" class="label"><rect></rect><foreignObject height="25.59375" width="268.875"><div style="display: inline-block; white-space: nowrap;" xmlns="http://www.w3.org/1999/xhtml"><span class="nodeLabel">Customs Broker Initiates Cancellation</span></div></foreignObject></g></g><g transform="translate(639.15625, 873.21875)" data-id="C2" data-node="true" id="flowchart-C2-158" class="node default default flowchart-label"><rect height="45.59375" width="212.828125" y="-22.796875" x="-106.4140625" ry="0" rx="0" style="" class="basic label-container"></rect><g transform="translate(-96.4140625, -12.796875)" style="" class="label"><rect></rect><foreignObject height="25.59375" width="192.828125"><div style="display: inline-block; white-space: nowrap;" xmlns="http://www.w3.org/1999/xhtml"><span class="nodeLabel">Select Cancellation Reason</span></div></foreignObject></g></g><g transform="translate(639.15625, 968.8125)" data-id="C3" data-node="true" id="flowchart-C3-159" class="node default default flowchart-label"><rect height="45.59375" width="204.015625" y="-22.796875" x="-102.0078125" ry="0" rx="0" style="" class="basic label-container"></rect><g transform="translate(-92.0078125, -12.796875)" style="" class="label"><rect></rect><foreignObject height="25.59375" width="184.015625"><div style="display: inline-block; white-space: nowrap;" xmlns="http://www.w3.org/1999/xhtml"><span class="nodeLabel">Provide Additional Details</span></div></foreignObject></g></g><g transform="translate(639.15625, 1064.40625)" data-id="C4" data-node="true" id="flowchart-C4-160" class="node default default flowchart-label"><rect height="45.59375" width="193.84375" y="-22.796875" x="-96.921875" ry="0" rx="0" style="" class="basic label-container"></rect><g transform="translate(-86.921875, -12.796875)" style="" class="label"><rect></rect><foreignObject height="25.59375" width="173.84375"><div style="display: inline-block; white-space: nowrap;" xmlns="http://www.w3.org/1999/xhtml"><span class="nodeLabel">Review Financial Impact</span></div></foreignObject></g></g><g transform="translate(639.15625, 1160)" data-id="C5" data-node="true" id="flowchart-C5-161" class="node default default flowchart-label"><rect height="45.59375" width="225.21875" y="-22.796875" x="-112.609375" ry="0" rx="0" style="" class="basic label-container"></rect><g transform="translate(-102.609375, -12.796875)" style="" class="label"><rect></rect><foreignObject height="25.59375" width="205.21875"><div style="display: inline-block; white-space: nowrap;" xmlns="http://www.w3.org/1999/xhtml"><span class="nodeLabel">Submit Cancellation Request</span></div></foreignObject></g></g><g transform="translate(1275.5859375, 168.390625)" data-id="E1" data-node="true" id="flowchart-E1-152" class="node default default flowchart-label"><rect height="45.59375" width="193.984375" y="-22.796875" x="-96.9921875" ry="0" rx="0" style="" class="basic label-container"></rect><g transform="translate(-86.9921875, -12.796875)" style="" class="label"><rect></rect><foreignObject height="25.59375" width="173.984375"><div style="display: inline-block; white-space: nowrap;" xmlns="http://www.w3.org/1999/xhtml"><span class="nodeLabel">Check Certificate Status</span></div></foreignObject></g></g><g transform="translate(1275.5859375, 263.984375)" data-id="E2" data-node="true" id="flowchart-E2-153" class="node default default flowchart-label"><rect height="45.59375" width="190.578125" y="-22.796875" x="-95.2890625" ry="0" rx="0" style="" class="basic label-container"></rect><g transform="translate(-85.2890625, -12.796875)" style="" class="label"><rect></rect><foreignObject height="25.59375" width="170.578125"><div style="display: inline-block; white-space: nowrap;" xmlns="http://www.w3.org/1999/xhtml"><span class="nodeLabel">Validate canCancel Flag</span></div></foreignObject></g></g><g transform="translate(1275.5859375, 359.578125)" data-id="E3" data-node="true" id="flowchart-E3-154" class="node default default flowchart-label"><rect height="45.59375" width="178.25" y="-22.796875" x="-89.125" ry="0" rx="0" style="" class="basic label-container"></rect><g transform="translate(-79.125, -12.796875)" style="" class="label"><rect></rect><foreignObject height="25.59375" width="158.25"><div style="display: inline-block; white-space: nowrap;" xmlns="http://www.w3.org/1999/xhtml"><span class="nodeLabel">Check Payment Status</span></div></foreignObject></g></g><g transform="translate(1275.5859375, 455.171875)" data-id="E4" data-node="true" id="flowchart-E4-155" class="node default default flowchart-label"><rect height="45.59375" width="187.5" y="-22.796875" x="-93.75" ry="0" rx="0" style="" class="basic label-container"></rect><g transform="translate(-83.75, -12.796875)" style="" class="label"><rect></rect><foreignObject height="25.59375" width="167.5"><div style="display: inline-block; white-space: nowrap;" xmlns="http://www.w3.org/1999/xhtml"><span class="nodeLabel">Assess Financial Impact</span></div></foreignObject></g></g><g transform="translate(1275.5859375, 638.8984375)" data-id="E5" data-node="true" id="flowchart-E5-156" class="node default default flowchart-label"><polygon style="" transform="translate(-110.9296875,110.9296875)" class="label-container" points="110.9296875,0 221.859375,-110.9296875 110.9296875,-221.859375 0,-110.9296875"></polygon><g transform="translate(-78.1328125, -12.796875)" style="" class="label"><rect></rect><foreignObject height="25.59375" width="156.265625"><div style="display: inline-block; white-space: nowrap;" xmlns="http://www.w3.org/1999/xhtml"><span class="nodeLabel">Cancellation Allowed?</span></div></foreignObject></g></g><g transform="translate(1338.55078125, 873.21875)" data-id="ERR" data-node="true" id="flowchart-ERR-190" class="node default default flowchart-label"><rect height="45.59375" width="200.359375" y="-22.796875" x="-100.1796875" ry="0" rx="0" style="" class="basic label-container"></rect><g transform="translate(-90.1796875, -12.796875)" style="" class="label"><rect></rect><foreignObject height="25.59375" width="180.359375"><div style="display: inline-block; white-space: nowrap;" xmlns="http://www.w3.org/1999/xhtml"><span class="nodeLabel">Cancellation Not Allowed</span></div></foreignObject></g></g><g transform="translate(1025.8515625, 1331.1875)" data-id="API1" data-node="true" id="flowchart-API1-212" class="node default default flowchart-label"><rect height="45.59375" width="136.203125" y="-22.796875" x="-68.1015625" ry="0" rx="0" style="" class="basic label-container"></rect><g transform="translate(-58.1015625, -12.796875)" style="" class="label"><rect></rect><foreignObject height="25.59375" width="116.203125"><div style="display: inline-block; white-space: nowrap;" xmlns="http://www.w3.org/1999/xhtml"><span class="nodeLabel">Cancellation API</span></div></foreignObject></g></g><g transform="translate(396.515625, 2184.71875)" data-id="API2" data-node="true" id="flowchart-API2-214" class="node default default flowchart-label"><rect height="45.59375" width="109.78125" y="-22.796875" x="-54.890625" ry="0" rx="0" style="" class="basic label-container"></rect><g transform="translate(-44.890625, -12.796875)" style="" class="label"><rect></rect><foreignObject height="25.59375" width="89.78125"><div style="display: inline-block; white-space: nowrap;" xmlns="http://www.w3.org/1999/xhtml"><span class="nodeLabel">Approval API</span></div></foreignObject></g></g><g transform="translate(663.5390625, 2184.71875)" data-id="API3" data-node="true" id="flowchart-API3-216" class="node default default flowchart-label"><rect height="45.59375" width="114.890625" y="-22.796875" x="-57.4453125" ry="0" rx="0" style="" class="basic label-container"></rect><g transform="translate(-47.4453125, -12.796875)" style="" class="label"><rect></rect><foreignObject height="25.59375" width="94.890625"><div style="display: inline-block; white-space: nowrap;" xmlns="http://www.w3.org/1999/xhtml"><span class="nodeLabel">Rejection API</span></div></foreignObject></g></g></g></g></g></svg>